<svg id="Layer_1" data-name="Layer 1" xmlns="http://www.w3.org/2000/svg" viewBox="0 0 17.99 22.8"><defs><style>.cls-1{fill:#690e11;}</style></defs><path class="cls-1" d="M8.16,3.14l.58.39a.09.09,0,0,0,.08,0h0l.78-.32a.14.14,0,0,0,.08-.12A.16.16,0,0,0,9.64,3l-.8-.34s-.07,0-.09,0l-.58.27A.17.17,0,0,0,8.12,3s0,.08,0,.1Zm.63-.24.46.19-.46.19-.35-.22Z"/><path class="cls-1" d="M13.89,4a1.12,1.12,0,0,0-.44-.74V2.46s0-.09,0-.14a.22.22,0,0,0,0-.14c-.16-1-2-1.79-4.44-1.79s-4.28.76-4.45,1.78h0V3.26A1,1,0,0,0,4.1,4c0,.36,0,12.22,0,15.87a1.55,1.55,0,0,0,.39,1c.54.53,1.79,1.45,4.5,1.45s4-.89,4.49-1.45a1.36,1.36,0,0,0,.39-1c0-3.65.05-15.5,0-15.87ZM9,.86c2.23,0,3.82.68,4,1.33v.19a.76.76,0,0,1-.22.37C12.41,2.34,11.44,1.48,9,1.48s-3.43.85-3.75,1.27A.71.71,0,0,1,5,2.29C5,1.63,6.65.86,9,.86ZM10.74,3l-.53-.22c-.41-.17-.83-.34-1.12-.44A1.73,1.73,0,0,0,7.32,2c-.35.15-.55.33-.6.52a.39.39,0,0,0,0,.36c.14.26.58.34.83.36a.74.74,0,0,0,.26.22,2.19,2.19,0,0,1,.37.25A5.66,5.66,0,0,1,5.43,3C5.73,2.56,6.65,1.73,9,1.73s3.25.83,3.57,1.19a4.06,4.06,0,0,1-1.39.58c0-.19-.15-.33-.43-.46Zm-3,0a3.25,3.25,0,0,1,.92-.44h.08a5.1,5.1,0,0,1,1.33.47l.53.22c.27.1.3.19.3.25v0A9.38,9.38,0,0,1,9,3.76H8.67a2.93,2.93,0,0,0-.26-.18,5.35,5.35,0,0,0-.47-.29c-.14-.08-.19-.14-.19-.17s0-.1,0-.1Zm-.19-.15a.21.21,0,0,0,0,.14A.94.94,0,0,1,7,2.78a.21.21,0,0,1,0-.18,1.07,1.07,0,0,1,.47-.36,1.73,1.73,0,0,1,1.26.1h0c-.19.07-.92.31-1.06.53ZM5,3.19a6.51,6.51,0,0,0,4,1,6.49,6.49,0,0,0,4-1v.1c-.17.22-1.1,1.14-4,1.17s-3.83-1-4-1.17Zm8.41,16.63a1,1,0,0,1-.27.66c-.47.48-1.66,1.31-4.16,1.31S5.28,21,4.82,20.48a1,1,0,0,1-.27-.66v0A6.77,6.77,0,0,0,9,21.12a6.8,6.8,0,0,0,4.44-1.36v.06ZM5,19.38V5.28a7,7,0,0,0,1.48.53V20.32A5,5,0,0,1,5,19.38ZM9,5.45c-2.77,0-4-.78-4.43-1.19V4a.5.5,0,0,1,.17-.31C5.12,4.09,6.31,4.92,9,4.94h.07c2.7,0,3.82-.85,4.18-1.24a.53.53,0,0,1,.17.31v.25C13,4.67,11.76,5.45,9,5.45Z"/></svg>