<svg id="Layer_1" data-name="Layer 1" xmlns="http://www.w3.org/2000/svg" viewBox="0 0 17.99 22.8"><defs><style>.cls-1{fill:#690e11;}</style></defs><path class="cls-1" d="M7.32,13.31s0,0,0,0l-.18.4a12.26,12.26,0,0,0-.52,1.63,1.89,1.89,0,0,0-.07.5,1,1,0,0,0,.08.42.35.35,0,0,0,.25.21l.12,0c.4,0,.48-.22.48-.49a2,2,0,0,0,0-.34,2.46,2.46,0,0,0,0-.28c0-.32,0-.7,0-1.06,0-.1,0-.19,0-.28h0c0-.16,0-.31,0-.45a1.54,1.54,0,0,0,0-.46l0,0-.06.11Zm.9-.08a9.9,9.9,0,0,1,.47-1.36c.18-.41.38-.7.55-.7s.28.28.28.7c0,.21,0,.47,0,.74v.06a2.45,2.45,0,0,1,1.34-.14,2.83,2.83,0,0,1,1,.42,11.31,11.31,0,0,1,.6-1.57A5.41,5.41,0,0,1,13.38,10c1.26-1.37,1.29-1.8,1.19-2.77h-.08A1.11,1.11,0,0,1,13.66,7a1.37,1.37,0,0,1-.53-.87,1.35,1.35,0,0,1,.09-.72,1.29,1.29,0,0,1,.43-.57,1.1,1.1,0,0,1,.8-.23,1.64,1.64,0,0,1,.41.1A.9.9,0,0,1,15.2,5a1.31,1.31,0,0,0,1.31.55.91.91,0,0,1,.44,0,1.35,1.35,0,0,1,.36.21,1.14,1.14,0,0,1,.4.74,1.42,1.42,0,0,1-.1.7,1.47,1.47,0,0,1-.45.57,1.3,1.3,0,0,1-1,.23,1.14,1.14,0,0,1-.76-.42h0a2.53,2.53,0,0,1-.1,1.13,5,5,0,0,1-1.2,1.75,3.74,3.74,0,0,0-.27.31l-.23.3a3.76,3.76,0,0,0-.41,1.28c-.1.52-.16,1.08-.2,1.49a1.45,1.45,0,0,1,.68-.17,3,3,0,0,1,1.84.71,2,2,0,0,1,.83,1.8c0,.1,0,.2,0,.33a1.69,1.69,0,0,1,0,.45.87.87,0,0,1-.16.34.61.61,0,0,1,.24.4.35.35,0,0,1,0,.2.26.26,0,0,1-.17.17.53.53,0,0,1-.26,0,.2.2,0,0,1-.08,0,.4.4,0,0,0-.33-.12h-.22a1.2,1.2,0,0,1-.37-.08.89.89,0,0,1-.24-.13.79.79,0,0,1-.13-.13c-.08-.07-.11-.1-.35-.05l-.21,0a.87.87,0,0,1-.31-.09l-.57-.24.09.19h0a.88.88,0,0,0,.14.23.19.19,0,0,0,.16.1h.22c.32,0,.52,0,.59.32a.28.28,0,0,1-.12.35.73.73,0,0,1-.3.05,2.48,2.48,0,0,1-.61-.07.68.68,0,0,1-.48-.32l-.7-1.33c-.38-.18-.75-.37-1.12-.58l-.23-.13a.16.16,0,0,0-.08.06.44.44,0,0,0-.06.1.6.6,0,0,1-.18.29.76.76,0,0,1-.4.14,2.83,2.83,0,0,0-1.17.4,3.26,3.26,0,0,1-.82.34A3.33,3.33,0,0,1,7,17.53a1.34,1.34,0,0,1-.44-.12.55.55,0,0,1-.26-.32.75.75,0,0,1,0-.21.65.65,0,0,0,0-.32c0-.06-.14-.09-.35-.11a3.93,3.93,0,0,0-1.83.27A6.1,6.1,0,0,0,2.27,17.8a1.33,1.33,0,0,1-.57.35,1,1,0,0,1-.54.08.89.89,0,0,1-.54-.33,1.7,1.7,0,0,1-.31-1.42,4.3,4.3,0,0,1,.77-1.83,2.43,2.43,0,0,1,.45-.46L1.68,14A27.22,27.22,0,0,1,4.6,10.76h0c.28-.18.46-.21.62-.14s.24.24.35.46a9.07,9.07,0,0,1,.36.89c.12.37.24.76.31,1.07,0,.06,0,.14.07.25l0,.06a5.68,5.68,0,0,1,.24-2.72c.51-1.42.41-1.75,0-2.43h0a1,1,0,0,1-.72.09A1.1,1.1,0,0,1,5,7.2a1.13,1.13,0,0,1,.15-.57.91.91,0,0,1,.54-.44,1.48,1.48,0,0,1,.35-.05.88.88,0,0,1,.36.11,1,1,0,0,0,1.13,0,.88.88,0,0,1,.36-.11,1.48,1.48,0,0,1,.35.05.91.91,0,0,1,.54.44,1.13,1.13,0,0,1,.15.57,1.1,1.1,0,0,1-.85,1.09,1,1,0,0,1-.66-.06,2.28,2.28,0,0,1,.26.84,4.26,4.26,0,0,1-.36,1.71c0,.11-.08.21-.11.31s0,.2-.07.3a2.25,2.25,0,0,0,0,.82,5,5,0,0,0,.16.73.31.31,0,0,1,.13-.06A.69.69,0,0,1,8,13H8l.22.18ZM9.42,13l0,0a5.41,5.41,0,0,0-.89.49c.32.26.63.51.94.74l.1-.15.12-.2.12-.24c.06-.11.11-.22.17-.32a.63.63,0,0,1,1-.24h0a.78.78,0,0,1,.25.23,1.49,1.49,0,0,1,.22.36l1.28,2.57q.66.34,1.35.66a.56.56,0,0,0,.25.05,1.09,1.09,0,0,0,.25,0,1.69,1.69,0,0,1,1,.08,2.23,2.23,0,0,1,.49.24.64.64,0,0,0,.11-.24,1.59,1.59,0,0,0,0-.38l0-.33a1.79,1.79,0,0,0-.73-1.63A2.89,2.89,0,0,0,13.69,14a1.18,1.18,0,0,0-.64.19.82.82,0,0,0-.35.48,1.74,1.74,0,0,0,.15,1.16.12.12,0,0,1-.22.1,2,2,0,0,1-.17-1.33A1.19,1.19,0,0,1,12.8,14h0a4.41,4.41,0,0,0-2-1.25A2.33,2.33,0,0,0,9.42,13Zm-.18-.18V12.6c0-.27,0-.52,0-.73s0-.46,0-.46-.18.23-.33.56a11.31,11.31,0,0,0-.42,1.2,5.53,5.53,0,0,1,.75-.4Zm3.23-.86a4.76,4.76,0,0,1,.55-.55,3.53,3.53,0,0,0,.43-.44c.07-.08.13-.17.2-.26l.28-.32A5.25,5.25,0,0,0,15,8.81a3,3,0,0,1-.54.47,2.94,2.94,0,0,0-.61.56h0l-.31.35a5.35,5.35,0,0,0-.91,1.31q-.09.19-.18.42Zm.74-.52-.09.08a3,3,0,0,0-1,1.33h0l-.09.29c.23.17.47.37.72.59,0-.39.1-.87.19-1.32a5.46,5.46,0,0,1,.25-1Zm1.18-2.22h0a2.09,2.09,0,0,0,.77-.84,4.26,4.26,0,0,0,0-.93L15,7.32a.6.6,0,0,0-.19-.06,2.35,2.35,0,0,1-.42,1.91Zm1.86-3.31a1.78,1.78,0,0,1-.16.75,1.65,1.65,0,0,1-.5.72.4.4,0,0,0,.25.09.73.73,0,0,0,.63-.27,1,1,0,0,0,.19-.3,1.32,1.32,0,0,0,.08-.33A.67.67,0,0,0,16.57,6a.58.58,0,0,0-.18-.11.22.22,0,0,0-.14,0ZM15.13,7.1l0,0h0Zm-.55-.2a1.62,1.62,0,0,1,.16-.85,1.83,1.83,0,0,1,.42-.65.28.28,0,0,0-.11-.08.65.65,0,0,0-.21-.05.64.64,0,0,0-.49.25,1,1,0,0,0-.18.29,1.07,1.07,0,0,0-.09.34.79.79,0,0,0,.26.65.42.42,0,0,0,.24.1Zm1.09-1.21h0Zm-.42-.16a1.49,1.49,0,0,0-.37.58,1.41,1.41,0,0,0-.14.79h0a.84.84,0,0,1,.38,0h0a.84.84,0,0,1,.3.25l0,0A1.47,1.47,0,0,0,16,6.56a1.62,1.62,0,0,0,.15-.68.84.84,0,0,1-.48,0,1,1,0,0,1-.37-.3Zm1.3.26.12.09a.77.77,0,0,1,.22.65,1.24,1.24,0,0,1-.09.38,1.08,1.08,0,0,1-.21.34.92.92,0,0,1-.76.33l-.16,0a.84.84,0,0,0,.53.27A1.06,1.06,0,0,0,17,7.63a1,1,0,0,0,.37-.48,1.13,1.13,0,0,0,.09-.57A.88.88,0,0,0,17.16,6a.92.92,0,0,0-.3-.17.62.62,0,0,0-.31,0ZM14.37,7a.51.51,0,0,1-.13-.09.91.91,0,0,1-.31-.77,1.4,1.4,0,0,1,.1-.39,1.15,1.15,0,0,1,.21-.33.79.79,0,0,1,.62-.3l.14,0A.61.61,0,0,0,14.76,5a1.13,1.13,0,0,0-.34-.09A.86.86,0,0,0,13.8,5a1.1,1.1,0,0,0-.35.47,1.08,1.08,0,0,0-.08.59,1.1,1.1,0,0,0,.44.72.86.86,0,0,0,.56.18ZM6.53,12.21a5.11,5.11,0,0,1,.21-.47,3.76,3.76,0,0,0,.16-.37v0c0-.1,0-.21.08-.32s.07-.21.11-.33A5.33,5.33,0,0,0,7.45,9.3a3.55,3.55,0,0,1-.23.43,3,3,0,0,0-.25.51l0,.06v0h0a3.79,3.79,0,0,1-.12.36,4.41,4.41,0,0,0-.28,1.51Zm.33-.38a2.29,2.29,0,0,0-.29,1.23h0c0,.16,0,.33,0,.51s0,.45.05.71c.08-.22.16-.43.24-.62a2.46,2.46,0,0,1,.21-.43v0l0,0a5.56,5.56,0,0,1-.22-.92c0-.14,0-.28,0-.42Zm.28-2.26a1.6,1.6,0,0,0,.26-.75,3.26,3.26,0,0,0-.31-.71H6.85a1.92,1.92,0,0,1,.29,1.46Zm.34-3a1.53,1.53,0,0,1,.11.62,1.42,1.42,0,0,1-.14.68.32.32,0,0,0,.19,0A.61.61,0,0,0,8,7.49a.92.92,0,0,0,.05-.28A.87.87,0,0,0,8,6.93a.46.46,0,0,0-.29-.33l-.16,0-.09,0Zm-1,1.3a1.55,1.55,0,0,1-.14-.68,1.53,1.53,0,0,1,.11-.62l-.09,0a.32.32,0,0,0-.16,0,.46.46,0,0,0-.29.33.86.86,0,0,0,0,.28.68.68,0,0,0,0,.28.61.61,0,0,0,.38.39.32.32,0,0,0,.19,0Zm.1-1.22a1.51,1.51,0,0,0-.09.54,1.12,1.12,0,0,0,.14.62h0A.75.75,0,0,1,7,7.73H7a.71.71,0,0,1,.31.09h0a1.12,1.12,0,0,0,.14-.62,1.51,1.51,0,0,0-.09-.54.69.69,0,0,1-.75,0Zm1.12-.24.06,0a.67.67,0,0,1,.39.43,1.13,1.13,0,0,1,.05.32,1.14,1.14,0,0,1-.05.33.79.79,0,0,1-.48.5H7.63a.66.66,0,0,0,.4,0,.91.91,0,0,0,.54-.39A.9.9,0,0,0,8.7,7.2a.89.89,0,0,0-.12-.45.76.76,0,0,0-.67-.36.43.43,0,0,0-.19,0ZM6.33,8H6.27a.75.75,0,0,1-.48-.5.88.88,0,0,1-.06-.33.87.87,0,0,1,.06-.32.66.66,0,0,1,.38-.43l.06,0a.43.43,0,0,0-.19,0,.76.76,0,0,0-.67.36.89.89,0,0,0-.12.45.9.9,0,0,0,.13.47.94.94,0,0,0,.54.39.7.7,0,0,0,.41,0Zm0,6.74v0a2.43,2.43,0,0,0-.13-.38,1.66,1.66,0,0,0-.76-.72,2.76,2.76,0,0,0-1.13-.25A3.41,3.41,0,0,0,3,13.67a3.15,3.15,0,0,0,.42,1.92,2,2,0,0,0,1.77.62h0a4.07,4.07,0,0,1,.78,0,.84.84,0,0,1,.43.13,1.37,1.37,0,0,1-.07-.45,2.38,2.38,0,0,1,.07-.56l0-.11a1.91,1.91,0,0,0,0-.43ZM6.28,14c-.06-.24-.13-.49-.19-.68S6,13.15,6,13.09c-.07-.3-.19-.68-.31-1.06a7.08,7.08,0,0,0-.35-.85c-.09-.18-.16-.31-.24-.35s-.18,0-.37.12a25,25,0,0,0-2.57,2.82l.44-.22.26-.12h0a14.11,14.11,0,0,1,1-1.24c.38-.42.76-.72,1-.65s.26.3.26.49v0h0c0,.36,0,.75,0,1.06v.17a1.66,1.66,0,0,1,.37.14,2,2,0,0,1,.72.59Zm-4.59.34h0a1.5,1.5,0,0,0-.23.2v0a2.59,2.59,0,0,0,.78,1.5A2.07,2.07,0,0,0,4,16.46h0l.25-.08a1.77,1.77,0,0,1-1.14-.64,3.33,3.33,0,0,1-.47-2,7.39,7.39,0,0,0-.91.53l-.1.07ZM5,13.23H5a.31.31,0,0,0,0-.09c0-.31,0-.69,0-1.05h0V12c0-.11,0-.25-.08-.27s-.47.23-.8.59-.54.65-.77,1a3.73,3.73,0,0,1,1.05-.13,3.18,3.18,0,0,1,.62.06ZM15,15.1a.55.55,0,0,1,.25.25.35.35,0,0,1,0,.33.36.36,0,0,1-.28.19.65.65,0,0,1-.6-.31.37.37,0,0,1,0-.34.35.35,0,0,1,.27-.18A.55.55,0,0,1,15,15.1Zm0,.35a.41.41,0,0,0-.15-.14.36.36,0,0,0-.2,0,.12.12,0,0,0-.1.05.17.17,0,0,0,0,.12.41.41,0,0,0,.15.14.38.38,0,0,0,.2,0s.08,0,.09-.06A.13.13,0,0,0,15.05,15.45ZM3.39,16.75a2.09,2.09,0,0,1-.86-.18,4.4,4.4,0,0,0,0,.45,3.11,3.11,0,0,1,0,.33,6.85,6.85,0,0,1,.94-.6ZM2.3,16.44l-.22-.16a2.68,2.68,0,0,1-.82-1.47,4.09,4.09,0,0,0-.71,1.71A1.47,1.47,0,0,0,.8,17.74a.66.66,0,0,0,.4.25.78.78,0,0,0,.41-.07c.58-.22.59-.43.63-.92,0-.15,0-.34.06-.56Zm5.91-2.89h0l-.36-.3a.83.83,0,0,0-.2-.11,1.71,1.71,0,0,1,0,.5v.15a.4.4,0,0,1,.28,0,1.55,1.55,0,0,1,.4.3l.09.08A21.11,21.11,0,0,0,11.19,16a28.46,28.46,0,0,0,2.66,1.28.65.65,0,0,0,.23.06.42.42,0,0,0,.16,0c.36-.07.41,0,.56.12l.12.11a.48.48,0,0,0,.16.09,1.1,1.1,0,0,0,.31.07h.21a.58.58,0,0,1,.47.16.19.19,0,0,0,.11,0,0,0,0,0,0,0,0,.28.28,0,0,0,0-.09.5.5,0,0,0,0-.13,1.6,1.6,0,0,0-.72-.46,1.45,1.45,0,0,0-.83-.08,1.13,1.13,0,0,1-.32.05.76.76,0,0,1-.35-.07,28.79,28.79,0,0,1-3-1.58,22.45,22.45,0,0,1-2.74-2ZM12.33,16l-1.1-2.22a2,2,0,0,1-.17.37l-.07.1a.5.5,0,0,1,.17.1,1.47,1.47,0,0,1,.1.13h0l.66,1.29.4.22Zm.23,1,.54,1a.52.52,0,0,0,.33.2,2.39,2.39,0,0,0,.55.05.44.44,0,0,0,.18,0s0,0,0-.07-.17-.12-.37-.13l-.23,0a.48.48,0,0,1-.33-.18,1.31,1.31,0,0,1-.17-.28h0l-.23-.45L12.56,17Zm-1-1.39-.49-1L11,14.55a.16.16,0,0,0-.1-.05.14.14,0,0,0-.1,0l0,0,0,0-.18.17-.11.1.66.43.48.28Zm-1-1.16,0,0a2.14,2.14,0,0,0,.28-.36,1.12,1.12,0,0,0,.16-.4.37.37,0,0,0-.1-.31.35.35,0,0,0-.09-.07h0a.42.42,0,0,0-.66.17,2.85,2.85,0,0,0-.16.3c0,.08-.08.17-.13.25s-.08.14-.13.21l-.11.16.58.41.16-.15.17-.16Zm-.75,1a11.27,11.27,0,0,1-1,.75c-.28.18-.5.27-.61.2s-.09-.3.07-.57.39-.55.64-.87L9,14.85c-.21-.15-.41-.3-.62-.47l-.11-.09A1.2,1.2,0,0,0,7.88,14a.13.13,0,0,0-.19.08c0,.08,0,.16,0,.25a9.28,9.28,0,0,0,0,1,2.28,2.28,0,0,0,0,.26c0,.13,0,.25,0,.37,0,.4-.12.73-.72.73l-.18,0a.56.56,0,0,1-.29-.17,1.92,1.92,0,0,1,0,.33.24.24,0,0,0,0,.12.35.35,0,0,0,.15.17,1.39,1.39,0,0,0,.34.09,3.11,3.11,0,0,0,1.09-.1,3.16,3.16,0,0,0,.77-.33,3.23,3.23,0,0,1,1.25-.42.69.69,0,0,0,.28-.09.5.5,0,0,0,.1-.18.68.68,0,0,1,.11-.19l0,0c-.27-.16-.55-.33-.83-.52ZM9.14,15l-.07.1c-.24.31-.48.62-.62.85a2.69,2.69,0,0,0-.15.23A1.32,1.32,0,0,0,8.65,16c.26-.17.59-.42.92-.69L9.14,15Z"/></svg>