<svg id="Layer_1" data-name="Layer 1" xmlns="http://www.w3.org/2000/svg" viewBox="0 0 17.99 22.8"><defs><style>.cls-1{fill:#690e11;}</style></defs><path class="cls-1" d="M12.55,10.89h0Z"/><path class="cls-1" d="M14.46,18.17H17a.52.52,0,0,0,.53-.52v-5.1H14.46Z"/><path class="cls-1" d="M12.8,12.55H14v5.62H12.8Z"/><path class="cls-1" d="M12.8,11.33H14v.77H12.8Z"/><path class="cls-1" d="M17,11.33H14.46v.77h3.09v-.24a.53.53,0,0,0-.53-.53Z"/><path class="cls-1" d="M16.33,10.54a.63.63,0,0,0-.14-.4.64.64,0,0,0-.9-.1l-.68.52-.41.32h2a.67.67,0,0,0,.09-.34Z"/><path class="cls-1" d="M10.55,10.14a.63.63,0,0,0-.14.4.67.67,0,0,0,.09.34h2L11.46,10a.65.65,0,0,0-.91.1Z"/><path class="cls-1" d="M9.16,11.86v.24h3.19v-.77H9.69a.53.53,0,0,0-.53.53Z"/><path class="cls-1" d="M9.16,17.65a.52.52,0,0,0,.53.52h2.66V12.55H9.16v5.1Z"/><path class="cls-1" d="M12.13,4.62h-9A1.58,1.58,0,0,0,1.52,6.11L.45,16.52a1.57,1.57,0,0,0,.43,1.16A1.55,1.55,0,0,0,2,18.17H8.87a.94.94,0,0,1-.16-.52V16.11H3.3a.22.22,0,0,1-.22-.22.22.22,0,0,1,.22-.23H8.71v-3.8a1,1,0,0,1,1-1H10a.93.93,0,0,1-.06-.34,1.1,1.1,0,0,1,1.77-.86l1.55,1.2.06,0,0,0,0,0,.07,0,.67-.52L13.7,6.12a1.59,1.59,0,0,0-1.57-1.5Z"/></svg>