<svg xmlns="http://www.w3.org/2000/svg" width="18.626" height="21.175" viewBox="0 0 18.626 21.175">
  <g id="home" transform="translate(-30.814 0)">
    <g id="Group_413" data-name="Group 413" transform="translate(30.814 0)">
      <path id="Path_652" data-name="Path 652" d="M49.2,8.28,40.379.193A.736.736,0,0,0,39.37.207L31.037,8.295a.736.736,0,0,0-.223.528V20.439a.735.735,0,0,0,.735.735h6.127a.735.735,0,0,0,.735-.735V15.048h3.431v5.392a.735.735,0,0,0,.735.735H48.7a.735.735,0,0,0,.735-.735V8.823A.735.735,0,0,0,49.2,8.28ZM47.97,19.7H43.313V14.312a.735.735,0,0,0-.735-.735h-4.9a.735.735,0,0,0-.735.735V19.7H32.284V9.134L39.9,1.746l8.073,7.4V19.7Z" transform="translate(-30.814 0)" fill="#db0000"/>
    </g>
  </g>
</svg>
