<svg xmlns="http://www.w3.org/2000/svg" width="39.574" height="36.926" viewBox="0 0 39.574 36.926">
  <g id="shopping-cart" transform="translate(-0.186 -0.587)">
    <path id="Path_73" data-name="Path 73" d="M.986,1.387H5.072A1.645,1.645,0,0,1,6.665,2.632l4.927,22.817a1.645,1.645,0,0,0,1.592,1.246h19.75a1.642,1.642,0,0,0,1.544-1.09l4.367-14.42A1.651,1.651,0,0,0,37.3,8.969H8.253M18.12,33.918a2.81,2.81,0,1,1-2.81-2.825A2.81,2.81,0,0,1,18.12,33.918Zm14.3,0a2.81,2.81,0,1,1-2.81-2.825,2.81,2.81,0,0,1,2.81,2.825Z" fill="none" stroke="#fff" stroke-linecap="round" stroke-linejoin="round" stroke-width="1.6" fill-rule="evenodd"/>
  </g>
</svg>
