<?xml version="1.0" encoding="utf-8"?>
<!-- Generator: Adobe Illustrator 25.4.1, SVG Export Plug-In . SVG Version: 6.00 Build 0)  -->
<svg version="1.1" id="Layer_1" xmlns="http://www.w3.org/2000/svg" xmlns:xlink="http://www.w3.org/1999/xlink" x="0px" y="0px"
	 viewBox="0 0 411.8 67.4" style="enable-background:new 0 0 411.8 67.4;" xml:space="preserve">
<style type="text/css">
	.st0{fill:#FFFFFF;}
</style>
<g>
	<path class="st0" d="M39.7,24.9c0.1-0.6,0.2-2.2-1.9-3.7c-1-0.8-3.2-1.2-6.3,0.4c0.6-2,0.9-5.1-1.2-9.3c-2.6-4.8-5.9-6.8-6.1-5.8
		c-0.1,1.2,1.4,2.9,1.4,2.9s-1.6-1.5-2-0.8c-0.6,1.1,1.5,2.9,1.5,2.9s-1.5-1.2-2.3-0.5c-0.6,0.7,0.9,3,0.9,3s-1.3-1.2-2-0.2
		c-0.6,0.9,0.4,2.5,0.4,2.5s-1.4-0.8-1.6,0.7c-0.7-0.4-1.6-0.8-2.5-1.2c-7.7-3.6-15.9-9-16.5-9S1.3,9.1,2.9,10c0,0-3.1-2.1-3-1.1
		s1.6,2.7,2.6,3.2c0,0-2.7-0.3-1.2,1.5c0.8,1,2.5,1.5,2.5,1.5s-1.4,0.4-0.2,1.8c1.2,1.5,2.7,1.4,2.7,1.4s-1.2,0.2-0.1,1.4
		S8.7,21,8.7,21s-1.1,1.1,0.5,2c1.5,1,2.2,0.8,2.2,0.8s-0.9,1.1-0.4,1.9c1,1.4,2.3,1,2.3,1s-0.2,0.9,0.9,2c1.1,1,1.8,0.4,1.8,0.4
		s-0.4,0.9,0.7,2c1.1,1,1.8,0.5,1.8,0.5s-0.3,0.8,0.5,1.3c0.3,0.2,0.5,0.5,0.8,0.6l0.2-0.1c-3,4.4-18.8,18.3-17.7,18
		c1.1-0.4,10.5-7.8,11.7-8c2-0.3,1.3,2,0.3,4.3c-1.2,3.1-4.2,11.2-4.4,11.7c0,0.4,9.7-16.6,11.3-19.1c2.3-3.5,4.5-1.8,8.3-4.7
		c3.8-3,4.3-7.2,5.4-8.3c1.4-1.6,5.4,0.7,5.4,0.7S39.6,26,39.7,24.9z"/>
	<g>
		<path class="st0" d="M22.5,43.3c15.6,9.2,34.2,12.1,51.9,8.9c2.5-0.5,4.9-1,7.4-1.8c2.4-0.7,5-1.3,7.1-2.8c0.5-0.3,0.3-1.2-0.3-1
			c-2.1,0.4-4.1,1.3-6.2,2c-2.2,0.6-4.3,1.2-6.5,1.8c-4.3,0.9-8.8,1.5-13.2,1.6c-8.6,0.3-17.5-0.8-25.7-3.4c-4.8-1.5-9.5-3.4-14-5.9
			C22.5,42.4,22,43.1,22.5,43.3L22.5,43.3z"/>
	</g>
	<g>
		<path class="st0" d="M75.1,44c-6.3,3.6-12.7,7.2-19.5,9.6c-3.2,1.1-6.6,2-10,2.3c-1.9,0.2-3.6,0.2-5.5,0.1
			c-1.6-0.1-3.3-0.5-4.9-0.2c-0.3,0.1-0.4,0.5-0.1,0.7c1.4,1,3.3,1,4.9,1.1s3.4,0,5-0.1c3.6-0.3,7.1-1.2,10.6-2.4
			c7-2.5,13.4-6.4,19.8-10.2C76.2,44.6,75.7,43.7,75.1,44L75.1,44z"/>
	</g>
	<g>
		<path class="st0" d="M33.3,47.9c2.5,2.8,6.2,3.1,9.6,3.6c4.2,0.7,8.4,1.2,12.8,1.6c4.1,0.4,8.1,0.7,12.3,0.7
			c1.9,0,3.7-0.1,5.6-0.5C75.2,53,77,52.5,78,51c0.2-0.3,0-0.7-0.3-0.7c-1.6,0.1-3.2,0.9-4.8,1.2c-1.6,0.3-3.4,0.4-5,0.4
			c-3.9,0-7.8-0.2-11.6-0.5c-4-0.3-7.9-0.7-11.9-1.2c-3.5-0.4-7.4-0.6-10.4-2.8C33.4,47.3,33,47.6,33.3,47.9L33.3,47.9z"/>
	</g>
	<g>
		<path class="st0" d="M78,49.9c-6,4.4-12.8,7.4-19.9,9.2c-3.6,0.8-7.2,1.4-10.8,1.8c-1.8,0.2-3.6,0.3-5.4,0.3
			c-1.9,0.1-3.8-0.2-5.7,0.1c0.3,0.3,0.6,0.6,0.9,0.9c-0.1-0.6-0.2-1.1-0.2-1.8c0-0.6-0.7-0.6-0.9-0.1s-0.3,0.9-0.5,1.4
			S35.4,62.9,36,63c1.4,0.3,2.9,0.2,4.3,0.1c1.4,0,3-0.1,4.4-0.2c2.9-0.2,5.9-0.6,8.8-1.1c5.8-1,11.5-2.9,16.8-5.6
			c3-1.5,5.7-3.4,8.2-5.7C79.1,50.3,78.5,49.5,78,49.9L78,49.9z"/>
	</g>
	<g>
		<path class="st0" d="M34.1,53.4c7.1,3.1,14.6,4.5,22.2,5.5c3.7,0.5,7.3,0.9,11,1.2c2.7,0.2,6.9,0.4,8.9-2.1c0.4-0.5-0.2-1.1-0.7-1
			c-1.5,0.2-3,0.9-4.5,1c-1.5,0.2-3.1,0.1-4.6-0.1c-3.5-0.3-7.1-0.6-10.6-1c-7.2-0.8-14.5-2.1-21.4-4.2
			C33.9,52.6,33.7,53.2,34.1,53.4L34.1,53.4z"/>
	</g>
	<g>
		<path class="st0" d="M89.2,52c-3,2-6.2,3.7-9.4,5.1c-1.6,0.7-3.3,1.4-4.9,2c-0.8,0.3-1.8,0.5-2.6,0.8c-0.4,0.1-0.7,0.2-1.1,0.3
			c-0.2,0.1-0.4,0.1-0.6,0.2c-0.3-0.1-0.3,0-0.2,0.3c0.1-0.4-0.2-0.8-0.6-0.7c-0.6,0.1-1,0.7-1,1.4c0.1,1,1,1.4,2,1.4
			c1.1-0.1,2.3-0.6,3.4-0.9c1.1-0.4,2.3-0.8,3.4-1.2c4.5-1.9,8.8-4.4,12.5-7.7C90.3,52.6,89.8,51.7,89.2,52L89.2,52z"/>
	</g>
	<g>
		<path class="st0" d="M44.3,63.6c4.2-0.3,8.2-1.2,12.1-3.1c1.9-0.9,3.7-2,5.5-3.2c0.8-0.6,1.6-1.2,2.5-2c0.7-0.6,1.6-1.3,1.8-2.4
			c0-0.3-0.2-0.6-0.5-0.6c-0.8,0-1.4,0.5-2.1,1.1c-0.8,0.7-1.6,1.3-2.5,2c-1.6,1.2-3.4,2.4-5.3,3.3c-3.6,1.9-7.6,3.2-11.6,3.7
			C43.7,62.7,43.7,63.7,44.3,63.6L44.3,63.6z"/>
	</g>
	<g>
		<path class="st0" d="M62.3,48.5c3.6,1,7.2,1.9,10.8,2.7c1.9,0.4,3.7,0.7,5.6,1.1c0.8,0.2,1.8,0.3,2.6,0.5c0.8,0.1,1.6,0.4,2.5,0
			c0.3-0.1,0.4-0.5,0.1-0.8c-1-1.1-3.3-1-4.6-1.3c-1.9-0.3-3.7-0.7-5.7-1c-3.7-0.6-7.5-1.2-11.2-1.8C62.1,47.8,62,48.4,62.3,48.5
			L62.3,48.5z"/>
	</g>
	<g>
		<path class="st0" d="M28,46.9c3.7,4.3,8.1,8.3,13.3,10.6c0.3,0.1,0.5-0.3,0.3-0.5c-4.5-3.4-9.1-6.6-13.2-10.4
			C28.1,46.3,27.8,46.6,28,46.9L28,46.9z"/>
	</g>
	<g>
		<path class="st0" d="M45.3,45.9c5,5.6,13.3,7.3,20.4,6.3c0.4-0.1,0.3-0.6,0-0.6c-3.7-0.6-7.4-0.5-11-1.4c-3.2-0.8-6.3-2.4-8.8-4.6
			C45.5,45,45,45.4,45.3,45.9L45.3,45.9z"/>
	</g>
	<g>
		<path class="st0" d="M46.8,60.3c4.7,2.3,10.4,4,15.8,3.4c0.3,0,0.3-0.5,0-0.6c-2.6-0.5-5.3-0.7-7.8-1.2c-2.6-0.5-5.1-1.3-7.6-2.3
			C46.6,59.3,46.4,60.1,46.8,60.3L46.8,60.3z"/>
	</g>
	<g>
		<path class="st0" d="M78.3,55.6c3.7,2.5,9.4,3.7,13.5,1.5c0.4-0.2,0.2-0.8-0.3-0.8c-2.2,0.2-4.2,0.6-6.4,0.4
			c-2.2-0.2-4.4-0.9-6.4-2C78.5,54.6,77.9,55.3,78.3,55.6L78.3,55.6z"/>
	</g>
	<g>
		<path class="st0" d="M47.8,61.1c2.1,1.2,4.5,2.1,6.8,2.8c2.3,0.6,4.5,1.1,6.9,0.5c0.5-0.1,0.4-0.9-0.1-0.9
			c-2.4-0.2-4.6-0.6-6.9-1.3c-2.2-0.6-4.2-1.5-6.4-2C47.6,60.1,47.4,60.9,47.8,61.1L47.8,61.1z"/>
	</g>
	<g>
		<path class="st0" d="M77.9,63.4c3.1-0.8,6.1-2.3,8.4-4.6c0.3-0.3-0.1-0.7-0.4-0.4c-2.6,1.9-5.3,3.4-8.2,4.1
			C77.1,62.5,77.3,63.6,77.9,63.4L77.9,63.4z"/>
	</g>
	<g>
		<path class="st0" d="M45.1,40.9L45.1,40.9l0.1-0.2c0-0.2,0-0.3,0-0.6v-12c0-0.2,0-0.4,0-0.6v-0.1v-0.1h3v1.9
			c0.6-1.1,1.8-1.9,3.2-2.1c0.3,0,0.7-0.1,1-0.1c1.2,0,2.2,0.3,3,1c0.7,0.7,1.1,1.6,1.1,2.8V40c0,0.2,0,0.4,0.1,0.6v0.1v0.1h-3.2
			v-0.1v-0.1c0-0.2,0-0.3,0-0.6v-8.6c0-0.7-0.2-1.2-0.6-1.8c-0.4-0.4-0.9-0.6-1.6-0.6c-0.3,0-0.6,0-0.9,0.1c-1,0.2-1.6,0.9-2,2
			c-0.1,0.2-0.1,0.4-0.1,0.6v8.2c0,0.3,0,0.5,0.1,0.6v0.1v0.1h-3.2C45.1,40.7,45.1,40.9,45.1,40.9z"/>
		<path class="st0" d="M70.9,33.8h-9.2v0.5c0,1.8,0.4,3.2,1.1,4.1c0.7,0.9,1.8,1.4,3,1.4c1.5,0,2.9-0.5,4-1.5l0.4,1.9
			c-1.4,0.7-3,1.1-4.8,1.1c-2.2,0-3.9-0.6-5-2c-1.2-1.2-1.8-3-1.8-5.3c0-1.9,0.5-3.3,1.2-4.5c0.8-1.1,1.9-2,3.2-2.3
			c0.7-0.2,1.4-0.3,2.1-0.3c1.8,0,3.1,0.6,4.1,1.8s1.5,2.7,1.6,4.7L70.9,33.8L70.9,33.8z M61.9,32.5h6c0-0.2,0-0.6-0.1-1.2
			c-0.1-0.4-0.2-0.8-0.3-1.2c-0.5-1.1-1.2-1.6-2.4-1.6c-0.6,0-1.2,0.2-1.8,0.7C62.3,30,61.9,31,61.9,32.5z"/>
		<path class="st0" d="M72.1,40l0.5-2c0.2,0.2,0.4,0.3,0.7,0.6c1,0.7,2.1,1,3.2,1c0.7,0,1.2-0.2,1.6-0.5c0.5-0.4,0.8-0.9,0.8-1.5
			c0-0.4-0.1-0.7-0.3-1s-1-0.8-2.6-1.4c-0.1,0-0.2-0.1-0.4-0.2c-2.2-0.8-3.3-2.1-3.3-3.8c0-0.5,0.1-0.9,0.3-1.5
			c0.3-0.8,0.8-1.4,1.6-2c0.8-0.5,1.9-0.7,3.1-0.7c1.1,0,2.5,0.3,4.1,0.9L81,29.7c-0.1-0.1-0.3-0.3-0.6-0.5
			c-0.9-0.5-1.8-0.8-2.7-0.8c-0.6,0-1.1,0.1-1.6,0.4c-0.5,0.4-0.8,0.8-0.8,1.4c0,0.5,0.2,0.9,0.6,1.2c0.3,0.2,1,0.6,2.3,1
			c0.2,0.1,0.5,0.2,0.8,0.3c2,0.9,2.9,2.2,2.9,3.6c0,0.4-0.1,0.9-0.2,1.4c-0.2,0.9-0.8,1.8-1.6,2.3c-0.9,0.6-2.1,0.8-3.4,0.8
			c-0.4,0-0.9,0-1.4-0.1C74.1,40.9,73.1,40.6,72.1,40z"/>
		<path class="st0" d="M82.4,28.7v-1.3h2v-2.5l3.1-0.4v0.1v0.1c0,0.2,0,0.4,0,0.6v2h2.2v1.3h-2.2V38c0,0.2,0,0.4,0,0.5
			c0.1,0.5,0.4,0.7,0.9,0.7c0.3,0,0.6-0.1,0.9-0.3c0,0,0.1-0.1,0.2-0.1v1.5c-0.9,0.4-1.8,0.5-2.5,0.5c-0.8,0-1.4-0.2-2-0.6
			c-0.4-0.4-0.6-1-0.6-1.8v-9.9C84.4,28.7,82.4,28.7,82.4,28.7z"/>
	</g>
	<g>
		<path class="st0" d="M45,13.9L45,13.9h1.9l0,0V14c0,0,0,0.1,0,0.3v8h2.9c0,0,0.1,0,0.2,0v0.9h-4.8l0,0l0,0c0-0.1,0-0.2,0-0.3v-8.4
			C45.1,14.3,45.1,14.2,45,13.9L45,13.9L45,13.9z"/>
		<path class="st0" d="M50.2,14.7c0-0.3,0.2-0.5,0.5-0.6c0.2,0,0.3,0,0.5,0c0.6,0,0.9,0.2,0.9,0.6c0,0.4-0.3,0.6-1,0.6
			C50.6,15.3,50.2,15.1,50.2,14.7z M50.3,23.2L50.3,23.2L50.3,23.2c0.1-0.2,0.1-0.3,0.1-0.4v-6.5c0-0.1,0-0.2,0-0.3l0,0l0,0h1.8l0,0
			l0,0c0,0,0,0.1,0,0.3v6.5c0,0.2,0,0.3,0,0.3l0,0l0,0h-1.9C50.3,23.1,50.3,23.2,50.3,23.2z"/>
		<path class="st0" d="M52.9,16.7V16h0.7v-1c0-1.1,0.7-1.6,2.3-1.6c0.6,0,1.2,0.1,1.8,0.3l-0.3,0.8c-0.3-0.2-0.7-0.3-1.1-0.3
			c-0.6,0-0.9,0.3-0.9,0.9V16h2.1v0.7h-2.1v6.2c0,0.1,0,0.2,0,0.3l0,0l0,0h-1.8l0,0l0,0c0-0.1,0-0.2,0-0.3v-6.2
			C53.5,16.7,52.9,16.7,52.9,16.7z"/>
		<path class="st0" d="M63.4,19.4h-4.9v0.3c0,0.9,0.2,1.8,0.6,2.2c0.4,0.5,0.9,0.7,1.6,0.7c0.8,0,1.5-0.3,2.2-0.8l0.2,1
			c-0.7,0.4-1.6,0.6-2.6,0.6c-1.1,0-2.1-0.3-2.8-1c-0.6-0.7-0.9-1.6-0.9-2.9c0-0.9,0.2-1.8,0.7-2.5c0.4-0.6,1-1,1.6-1.2
			c0.4-0.1,0.8-0.1,1.1-0.1c0.9,0,1.6,0.3,2.3,0.9c0.5,0.6,0.8,1.4,0.9,2.6L63.4,19.4C63.4,19.4,63.4,19.4,63.4,19.4z M58.5,18.7
			h3.2c0-0.1,0-0.3-0.1-0.6c0-0.2-0.1-0.4-0.2-0.6c-0.2-0.6-0.7-0.9-1.3-0.9c-0.4,0-0.7,0.1-0.9,0.4C58.7,17.3,58.5,18,58.5,18.7z"
			/>
	</g>
	<g>
		<path class="st0" d="M86.8,56.1c5.5-1.5,10.9-4,15.1-7.7c0.3-0.2-0.1-0.6-0.4-0.5c-4.9,2.7-9.7,5.6-14.9,7.6
			C86.3,55.6,86.5,56.2,86.8,56.1L86.8,56.1z"/>
	</g>
	<g>
		<path class="st0" d="M86,51.6c3.1-0.8,6.1-2.3,8.4-4.6c0.3-0.3-0.1-0.7-0.4-0.4c-2.6,1.9-5.3,3.4-8.2,4.1
			C85.2,50.8,85.5,51.8,86,51.6L86,51.6z"/>
	</g>
	<g>
		<path class="st0" d="M96.7,27.2c0,1.3-1,2.5-2.5,2.5c-1.3,0-2.5-1-2.5-2.5c0-1.3,1.1-2.4,2.5-2.4C95.6,24.8,96.7,25.9,96.7,27.2z
			 M92.3,27.2c0,1,0.8,2,1.9,2c1,0,1.9-0.8,1.9-2c0-1-0.8-2-1.9-2C93.2,25.3,92.3,26.1,92.3,27.2z M93.9,28.5h-0.5v-2.4
			c0.2,0,0.5-0.1,0.9-0.1s0.6,0.1,0.8,0.2c0.1,0.1,0.2,0.3,0.2,0.5c0,0.3-0.2,0.5-0.5,0.5l0,0c0.2,0.1,0.4,0.3,0.4,0.6
			c0.1,0.4,0.1,0.5,0.2,0.6h-0.6c-0.1-0.1-0.1-0.3-0.2-0.6c0-0.3-0.2-0.4-0.5-0.4h-0.3L93.9,28.5L93.9,28.5L93.9,28.5z M93.9,27.1
			h0.3c0.3,0,0.5-0.1,0.5-0.3c0-0.2-0.2-0.4-0.5-0.4c-0.1,0-0.2,0-0.3,0V27.1z"/>
	</g>
</g>
<g>
	<path class="st0" d="M102.2,17.3h5.1v0.2v0.1c0,0.2,0.1,0.5,0.3,0.8l4.6,9.7l4.8-9.7c0.2-0.4,0.3-0.6,0.3-0.8v-0.1v-0.1h2.5
		l-0.1,0.1l-0.1,0.1c-0.1,0.1-0.2,0.4-0.4,0.8L113,30.8v9.4c0,0.4,0,0.7,0.1,0.8v0.1l0.1,0.1h-4.7l0.1-0.1V41c0-0.2,0.1-0.4,0.1-0.8
		v-9.3l-6-12.4c-0.1-0.3-0.3-0.6-0.4-0.8l-0.1-0.1L102.2,17.3z"/>
	<path class="st0" d="M119.8,41.1L119.8,41.1l0.1-0.2c0-0.1,0.1-0.4,0.1-0.8V18.5c0-0.4,0-0.7-0.1-0.8v-0.1l-0.1-0.2h12.7v2.2h-0.2
		h-0.2c-0.3,0-0.6-0.1-0.9-0.1h-6.7v8.8h6.7c0.3,0,0.6,0,0.9-0.1h0.2h0.2v2.2l-0.2-0.1h-0.2c-0.3,0-0.5-0.1-0.9-0.1h-6.7v9.1h6.6
		c0.5,0,0.8,0,0.9,0h0.2l0.2-0.1v2.3h-12.6C119.8,41.5,119.8,41.1,119.8,41.1z M121.1,15.7l4.2-5.1h2.4l4,5.1h-2.9l-2.4-3.7
		l-2.6,3.7C123.8,15.7,121.1,15.7,121.1,15.7z M128.7,10.7l2.5-5h3.3l-3.9,5H128.7z"/>
	<path class="st0" d="M134.9,41.1L134.9,41.1l0.1-0.2c0.1-0.2,0.1-0.4,0.1-0.8V18.5c0-0.4,0-0.6-0.1-0.8v-0.1l-0.1-0.1h4l0.1,0.1
		v0.1c0,0.1,0.2,0.3,0.5,0.8L152,35.9V18.5c0-0.3,0-0.6-0.1-0.8v-0.1l-0.1-0.1h2.3l-0.1,0.2v0.1c0,0.1,0,0.4,0,0.8v21.6
		c0,0.1,0,0.4,0.1,0.8l0.1,0.1v0.1h-3.8V41v-0.1c0-0.1-0.2-0.4-0.5-0.8L137,22.4v17.7c0,0.4,0,0.7,0.1,0.8V41l0.1,0.1
		C137.2,41.1,134.9,41.1,134.9,41.1z"/>
	<path class="st0" d="M164.9,39.7l0.8-3.1c0.7,0.7,1.5,1.4,2.6,1.9c1,0.5,2.1,0.7,3.1,0.7c1.3,0,2.4-0.4,3.1-1.1s1.1-1.8,1.1-2.9
		c0-0.9-0.3-1.6-0.8-2.3c-0.5-0.5-1.5-1.2-3.2-2.1c-0.2-0.1-0.6-0.3-1.1-0.5c-1.1-0.5-2.1-1-2.9-1.6c-1.9-1.2-2.7-3-2.7-5.1
		s0.8-3.7,2.5-5c1.4-1.1,3.3-1.6,5.6-1.6c2.1,0,3.9,0.4,5.7,1.3l-0.8,2.8c-1.6-1.3-3.3-2-5-2c-1.1,0-2.1,0.3-2.8,0.9s-1,1.4-1,2.5
		c0,0.8,0.3,1.4,0.8,2c0.5,0.5,1.5,1.1,3.2,2c0.1,0.1,0.4,0.2,0.9,0.4c3.9,1.8,5.9,4,5.9,7c0,1.4-0.4,2.8-1.1,4
		c-1.4,2.4-3.8,3.6-7.1,3.6C169.3,41.5,167,40.9,164.9,39.7z"/>
	<path class="st0" d="M179.1,41.1l0.1-0.1l0.1-0.1c0.1-0.2,0.2-0.5,0.4-0.8l7.7-21.6c0.1-0.4,0.2-0.6,0.2-0.8v-0.1v-0.1h3.9v0.2
		c0,0.1,0.1,0.4,0.3,0.8l7.9,21.6c0.1,0.3,0.3,0.6,0.4,0.8l0.1,0.1l0.1,0.1h-5.1v-0.2c0-0.1-0.1-0.4-0.2-0.8l-2.2-6.2h-8.5l-2.2,6.2
		c-0.1,0.4-0.2,0.7-0.2,0.8V41v0.1C182,41.1,179.1,41.1,179.1,41.1z M184.7,10.8h3.3l2.3,4.9h-1.8L184.7,10.8z M184.7,32h7.2
		l-3.6-10.3L184.7,32z"/>
	<path class="st0" d="M199.6,29.3c0-3.9,1-6.9,3.1-9.1s4.9-3.2,8.8-3.2c3.8,0,6.7,1,8.8,3.2s3.1,5.1,3.1,9.1s-1,6.9-3.1,9.1
		s-4.9,3.2-8.8,3.2c-3.8,0-6.7-1-8.8-3.2C200.7,36.2,199.6,33.2,199.6,29.3z M204.4,29.2c0,3.4,0.6,6,1.9,7.7c1.2,1.6,2.9,2.6,5,2.6
		c0.6,0,1.3-0.1,2.2-0.3c3.4-0.7,5.1-4.1,5.1-10c0-6.8-2.4-10.2-7.1-10.2C206.7,19.1,204.4,22.4,204.4,29.2z"/>
	<path class="st0" d="M234.4,41.1L234.4,41.1l0.1-0.2c0-0.2,0.1-0.4,0.1-0.8V18.5c0-0.4,0-0.6-0.1-0.8v-0.1l-0.1-0.1h4.8l-0.1,0.1
		v0.1c0,0.1-0.1,0.4-0.1,0.8V28l7.2-9.6c0.1-0.2,0.3-0.4,0.5-0.8v-0.1v-0.1h3.3l-0.2,0.1l-0.1,0.1c-0.1,0.1-0.4,0.4-0.7,0.8
		l-6.9,9.1l8.9,12.7c0.3,0.4,0.5,0.7,0.6,0.8l0.2,0.2h-5.6V41v-0.1c-0.1-0.2-0.2-0.5-0.4-0.8l-6.9-10v10c0,0.4,0,0.7,0.1,0.8V41v0.1
		H234.4z"/>
	<path class="st0" d="M251.8,17.4h4.8l-0.1,0.1v0.1c0,0.3-0.1,0.5-0.1,0.8v9.5h9.8v-9.5c0-0.4,0-0.6-0.1-0.8v-0.1v-0.1h4.8l-0.1,0.1
		v0.1c-0.1,0.2-0.1,0.4-0.1,0.8V40c0,0.3,0,0.6,0.1,0.8V41l0.1,0.1h-4.8l0.1-0.1v-0.1c0-0.2,0.1-0.5,0.1-0.8V29.8h-9.9v10.3
		c0,0.3,0,0.6,0.1,0.8l0.1,0.1v0.1h-4.8l0.1-0.1v-0.1c0.1-0.2,0.1-0.5,0.1-0.8V18.5c0-0.3,0-0.6-0.1-0.8v-0.1L251.8,17.4z"/>
	<path class="st0" d="M271.2,41.1l0.1-0.1l0.1-0.1c0.1-0.2,0.2-0.5,0.4-0.8l7.7-21.6c0.1-0.4,0.2-0.6,0.2-0.8v-0.1v-0.1h3.9v0.2
		c0,0.1,0.1,0.4,0.3,0.8l7.9,21.6c0.1,0.3,0.3,0.6,0.4,0.8l0.1,0.1l0.1,0.1h-5.1v-0.2c0-0.1-0.1-0.4-0.2-0.8l-2.2-6.2h-8.5l-2.2,6.2
		c-0.1,0.4-0.2,0.7-0.2,0.8V41v0.1C274.1,41.1,271.2,41.1,271.2,41.1z M276.7,32h7.2l-3.6-10.3L276.7,32z M280.5,15.7l2.5-5h3.3
		l-3.9,5H280.5z"/>
	<path class="st0" d="M292.5,41.1L292.5,41.1l0.1-0.2c0.1-0.2,0.1-0.4,0.1-0.8V18.5c0-0.4,0-0.6-0.1-0.8v-0.1l-0.1-0.1h4l0.1,0.1
		v0.1c0,0.1,0.2,0.3,0.5,0.8l12.5,17.4V18.5c0-0.3,0-0.6-0.1-0.8v-0.1l-0.1-0.1h2.3l-0.1,0.2v0.1c0,0.1,0,0.4,0,0.8v21.6
		c0,0.1,0,0.4,0.1,0.8l0.1,0.1v0.1h-3.9V41v-0.1c0-0.1-0.2-0.4-0.5-0.8l-12.8-17.7v17.7c0,0.4,0,0.7,0.1,0.8V41l0.1,0.1
		C294.7,41.1,292.5,41.1,292.5,41.1z"/>
	<path class="st0" d="M315,17.4h4.8l-0.1,0.1v0.1c0,0.3-0.1,0.5-0.1,0.8v9.5h9.8v-9.5c0-0.4,0-0.6-0.1-0.8v-0.1v-0.1h4.8l-0.1,0.1
		v0.1c-0.1,0.2-0.1,0.4-0.1,0.8V40c0,0.3,0,0.6,0.1,0.8V41l0.1,0.1h-4.8l0.1-0.1v-0.1c0-0.2,0.1-0.5,0.1-0.8V29.8h-9.9v10.3
		c0,0.3,0,0.6,0.1,0.8l0.1,0.1v0.1H315l0.1-0.1v-0.1c0.1-0.2,0.1-0.5,0.1-0.8V18.5c0-0.3,0-0.6-0.1-0.8v-0.1L315,17.4z"/>
	<path class="st0" d="M346,17.4h4.8l-0.1,0.1v0.1c0,0.3-0.1,0.5-0.1,0.8v9.5h9.8v-9.5c0-0.4,0-0.6-0.1-0.8v-0.1v-0.1h4.8l-0.1,0.1
		v0.1c-0.1,0.2-0.1,0.4-0.1,0.8V40c0,0.3,0,0.6,0.1,0.8V41l0.1,0.1h-4.8l0.1-0.1v-0.1c0-0.2,0.1-0.5,0.1-0.8V29.8h-9.9v10.3
		c0,0.3,0,0.6,0.1,0.8l0.1,0.1v0.1H346l0.1-0.1v-0.1c0.1-0.2,0.1-0.5,0.1-0.8V18.5c0-0.3,0-0.6-0.1-0.8v-0.1L346,17.4z"/>
	<path class="st0" d="M367.4,29.3c0-3.9,1-6.9,3.1-9.1s4.9-3.2,8.8-3.2c3.8,0,6.7,1,8.8,3.2s3.1,5.1,3.1,9.1s-1,6.9-3.1,9.1
		s-4.9,3.2-8.8,3.2c-3.8,0-6.7-1-8.8-3.2S367.4,33.2,367.4,29.3z M372.2,29.2c0,3.4,0.6,6,1.9,7.7c1.2,1.6,2.9,2.6,5,2.6
		c0.6,0,1.3-0.1,2.2-0.3c3.4-0.7,5.1-4.1,5.1-10c0-6.8-2.4-10.2-7.1-10.2C374.5,19.1,372.2,22.4,372.2,29.2z M374.5,10.3h3.3
		l2.3,4.9h-1.8L374.5,10.3z"/>
	<path class="st0" d="M390.5,41.1l0.1-0.1l0.1-0.1c0.1-0.2,0.2-0.5,0.4-0.8l7.7-21.6c0.1-0.4,0.2-0.6,0.2-0.8v-0.1v-0.1h3.9v0.2
		c0,0.1,0.1,0.4,0.3,0.8l7.9,21.6c0.1,0.3,0.3,0.6,0.4,0.8l0.1,0.1l0.1,0.1h-5.1v-0.2c0-0.1-0.1-0.4-0.2-0.8l-2.2-6.2h-8.5l-2.2,6.2
		c-0.1,0.4-0.2,0.7-0.2,0.8V41v0.1C393.4,41.1,390.5,41.1,390.5,41.1z M396.2,32h7.2l-3.6-10.3L396.2,32z"/>
</g>
<g>
	<path class="st0" d="M180.1,49.6h2.6v0.1l0,0c0,0.1,0.1,0.2,0.1,0.4l2.3,4.8l2.4-4.8c0.1-0.2,0.1-0.3,0.2-0.4l0,0v-0.1h1.2v0.1l0,0
		c0,0.1-0.1,0.2-0.2,0.4l-3,6.1v4.7c0,0.2,0,0.3,0,0.4l0,0v0.1h-2.4l0,0v-0.1c0-0.1,0-0.2,0-0.4v-4.5l-2.9-6.2
		c-0.1-0.2-0.1-0.3-0.2-0.4L180.1,49.6L180.1,49.6z"/>
	<path class="st0" d="M197.2,56.5h-6.3v0.3c0,1.2,0.2,2.2,0.8,2.8c0.5,0.6,1.2,1,2.1,1c1.1,0,2.1-0.3,2.8-1.1l0.3,1.3
		c-1,0.5-2.1,0.8-3.4,0.8c-1.5,0-2.6-0.4-3.5-1.3s-1.2-2.1-1.2-3.6c0-1.2,0.3-2.3,0.9-3s1.3-1.3,2.2-1.5c0.5-0.1,1-0.2,1.4-0.2
		c1.2,0,2.1,0.4,2.8,1.2C196.9,54,197.2,55,197.2,56.5L197.2,56.5L197.2,56.5z M191,55.5h4.1c0-0.2,0-0.4-0.1-0.9
		c0-0.2-0.1-0.5-0.2-0.9c-0.3-0.8-0.9-1.2-1.6-1.2c-0.4,0-0.9,0.2-1.2,0.5C191.2,53.9,191,54.7,191,55.5z"/>
	<path class="st0" d="M198.6,61.4L198.6,61.4L198.6,61.4c0-0.2,0-0.3,0-0.5v-8.2c0-0.1,0-0.3,0-0.4l0,0v-0.1h2.1v1.2
		c0.4-0.8,1.2-1.3,2.2-1.4c0.2,0,0.4,0,0.6,0c0.9,0,1.5,0.2,2.1,0.8c0.5,0.4,0.8,1.1,0.8,1.8V61c0,0.1,0,0.3,0,0.4l0,0v0.1h-2.2
		v-0.1l0,0c0-0.1,0-0.2,0-0.4v-6c0-0.5-0.1-0.9-0.4-1.2c-0.3-0.3-0.6-0.4-1.2-0.4c-0.2,0-0.4,0-0.6,0.1c-0.6,0.1-1.1,0.6-1.3,1.4
		c0,0.2-0.1,0.3-0.1,0.4v5.6c0,0.2,0,0.3,0,0.4v0.1l0,0C200.6,61.4,198.6,61.4,198.6,61.4z"/>
	<path class="st0" d="M207.6,60.7l0.3-1.4c0.1,0.1,0.3,0.2,0.5,0.4c0.8,0.5,1.4,0.8,2.2,0.8c0.4,0,0.9-0.1,1.2-0.3s0.5-0.6,0.5-1.1
		c0-0.3-0.1-0.5-0.2-0.8c-0.2-0.2-0.8-0.5-1.7-1c-0.1,0-0.1-0.1-0.3-0.1c-1.5-0.5-2.3-1.4-2.3-2.6c0-0.3,0.1-0.6,0.2-1.1
		c0.2-0.5,0.5-1,1.1-1.3c0.5-0.3,1.3-0.5,2.1-0.5s1.7,0.2,2.8,0.6l-0.3,1.3c-0.1-0.1-0.2-0.2-0.4-0.3c-0.6-0.4-1.2-0.5-1.8-0.5
		c-0.4,0-0.8,0.1-1.1,0.3s-0.5,0.6-0.5,1s0.1,0.6,0.4,0.9c0.2,0.1,0.8,0.4,1.6,0.8c0.1,0.1,0.3,0.1,0.5,0.2c1.3,0.6,1.9,1.5,1.9,2.5
		c0,0.3,0,0.6-0.1,1c-0.2,0.6-0.5,1.2-1.2,1.5c-0.6,0.4-1.4,0.5-2.3,0.5c-0.3,0-0.6,0-1-0.1C209,61.4,208.3,61.2,207.6,60.7z"/>
	<path class="st0" d="M216.5,53.9l-0.3-1.3c0.3-0.1,0.5-0.2,0.6-0.3c1-0.4,1.9-0.5,2.8-0.5c1,0,1.6,0.2,2.2,0.8
		c0.4,0.4,0.8,1.1,0.8,1.8v4.9c0,0.1,0,0.2,0,0.5s0.2,0.5,0.4,0.5c0.1,0,0.2,0,0.4-0.1l0.2-0.1v1.1c0,0-0.1,0.1-0.2,0.2
		c-0.4,0.2-0.9,0.3-1.2,0.3c-0.4,0-0.8-0.1-1.1-0.3s-0.5-0.5-0.4-1c-0.3,0.4-0.8,0.8-1.3,1c-0.4,0.2-1,0.3-1.5,0.3
		c-0.8,0-1.4-0.2-1.8-0.8c-0.4-0.5-0.8-1.1-0.8-1.8c0-1.4,0.8-2.4,2.4-2.9c0.2-0.1,0.8-0.2,1.6-0.5c0.4-0.1,0.8-0.3,0.9-0.4
		c0.2-0.1,0.2-0.4,0.3-0.8c0-0.4-0.1-0.9-0.4-1.1c-0.3-0.2-0.6-0.3-1.2-0.3C218.1,52.9,217.2,53.3,216.5,53.9z M220.3,55.9
		c-0.2,0.1-0.3,0.2-0.4,0.3c-1.2,0.4-1.9,0.9-2.3,1.2c-0.3,0.3-0.5,0.8-0.5,1.3c0,0.1,0,0.2,0,0.3c0.2,0.8,0.6,1.2,1.4,1.2
		c0.3,0,0.5-0.1,0.9-0.2c0.6-0.3,1-1,1-1.8L220.3,55.9L220.3,55.9z"/>
	<path class="st0" d="M224,56.7c0-1.5,0.4-2.7,1.2-3.6c0.8-0.9,1.8-1.3,3.1-1.3c1.1,0,1.9,0.3,2.6,0.9c0.6,0.5,1.2,1.3,1.5,2.3
		c0.2,0.6,0.2,1.3,0.2,1.8c0,1.4-0.4,2.5-1.2,3.4c-0.9,0.9-1.8,1.3-3.1,1.3s-2.4-0.4-3.1-1.3S224,58.1,224,56.7z M226.2,56.7
		c0,0.2,0,0.4,0,0.8c0.2,2.2,0.9,3.2,2.1,3.2c0.2,0,0.4,0,0.6-0.1c0.8-0.3,1.3-1.3,1.5-3c0.1-0.5,0.1-1,0-1.5
		c-0.1-1.2-0.4-1.9-0.8-2.5c-0.3-0.4-0.8-0.6-1.4-0.6c-1.2,0-1.8,1.1-2.1,3.1C226.2,56.2,226.2,56.4,226.2,56.7z"/>
	<path class="st0" d="M234.2,61.4L234.2,61.4L234.2,61.4c0-0.2,0-0.3,0-0.5V49.5c0-0.2,0-0.3,0-0.4l0,0V49h2.2v0.1l0,0
		c0,0.1,0,0.2,0,0.4v6.4l2.8-3.2c0.1-0.2,0.2-0.3,0.3-0.4l0,0v-0.1h1.6H241l-0.1,0.1c0,0-0.2,0.2-0.4,0.4l-2.6,2.9l4,5.3l0.3,0.4
		h0.1l0.1,0.1h-2.7v-0.1l0,0c0-0.1-0.1-0.2-0.2-0.4l-3.2-4.1v4.1c0,0.2,0,0.3,0,0.4l0,0v0.1H234.2z"/>
	<path class="st0" d="M242.4,61.4L242.4,61.4L242.4,61.4c0-0.2,0-0.3,0-0.5V49.5c0-0.2,0-0.3,0-0.4l0,0V49h2.2v0.1l0,0
		c0,0.1,0,0.2,0,0.4v3.8c0.4-0.6,1-1.1,1.7-1.3c0.4-0.1,0.8-0.1,1.1-0.1c0.9,0,1.5,0.2,1.9,0.8c0.5,0.5,0.8,1.1,0.8,1.9v6.3
		c0,0.1,0,0.3,0,0.4l0,0v0.1h-2.3v-0.1l0,0c0-0.1,0-0.2,0-0.4V55c0-0.5-0.1-1-0.4-1.2c-0.3-0.3-0.6-0.4-1.2-0.4
		c-0.2,0-0.4,0-0.6,0.1c-0.4,0.1-0.8,0.3-1,0.6s-0.4,0.6-0.4,1.1v5.6c0,0.2,0,0.3,0,0.4l0,0v0.1h-1.8V61.4z"/>
	<path class="st0" d="M252.8,53.9l-0.3-1.3c0.3-0.1,0.5-0.2,0.6-0.3c1-0.4,1.9-0.5,2.8-0.5c1,0,1.6,0.2,2.2,0.8
		c0.4,0.4,0.8,1.1,0.8,1.8v4.9c0,0.1,0,0.2,0,0.5s0.2,0.5,0.4,0.5c0.1,0,0.2,0,0.4-0.1l0.2-0.1v1.1c0,0-0.1,0.1-0.2,0.2
		c-0.4,0.2-0.9,0.3-1.2,0.3c-0.4,0-0.8-0.1-1.1-0.3c-0.3-0.2-0.5-0.5-0.4-1c-0.3,0.4-0.8,0.8-1.3,1c-0.4,0.2-1,0.3-1.5,0.3
		c-0.8,0-1.4-0.2-1.8-0.8c-0.4-0.5-0.8-1.1-0.8-1.8c0-1.4,0.8-2.4,2.4-2.9c0.2-0.1,0.8-0.2,1.6-0.5c0.4-0.1,0.8-0.3,0.9-0.4
		c0.2-0.1,0.2-0.4,0.3-0.8c0-0.4-0.1-0.9-0.4-1.1s-0.6-0.3-1.2-0.3C254.4,52.9,253.6,53.3,252.8,53.9z M256.7,55.9
		c-0.2,0.1-0.3,0.2-0.4,0.3c-1.2,0.4-1.9,0.9-2.3,1.2c-0.3,0.3-0.5,0.8-0.5,1.3c0,0.1,0,0.2,0,0.3c0.2,0.8,0.6,1.2,1.4,1.2
		c0.3,0,0.5-0.1,0.9-0.2c0.6-0.3,1-1,1-1.8L256.7,55.9L256.7,55.9z"/>
	<path class="st0" d="M260.7,61.4L260.7,61.4L260.7,61.4c0-0.2,0-0.3,0-0.5v-8.2c0-0.1,0-0.3,0-0.4l0,0v-0.1h2.1v1.2
		c0.4-0.8,1.2-1.3,2.2-1.4c0.2,0,0.4,0,0.6,0c0.9,0,1.5,0.2,2.1,0.8c0.5,0.4,0.8,1.1,0.8,1.8V61c0,0.1,0,0.3,0,0.4l0,0v0.1h-2.2
		v-0.1l0,0c0-0.1,0-0.2,0-0.4v-6c0-0.5-0.1-0.9-0.4-1.2s-0.6-0.4-1.2-0.4c-0.2,0-0.4,0-0.6,0.1c-0.6,0.1-1.1,0.6-1.3,1.4
		c0,0.2-0.1,0.3-0.1,0.4v5.6c0,0.2,0,0.3,0,0.4v0.1l0,0C262.7,61.4,260.7,61.4,260.7,61.4z"/>
	<path class="st0" d="M270.3,61.4L270.3,61.4L270.3,61.4c0-0.2,0-0.3,0-0.5V49.5c0-0.2,0-0.3,0-0.4l0,0V49h2.2v0.1l0,0
		c0,0.1,0,0.2,0,0.4v3.8c0.4-0.6,1-1.1,1.7-1.3c0.4-0.1,0.8-0.1,1.1-0.1c0.9,0,1.5,0.2,1.9,0.8c0.5,0.5,0.8,1.1,0.8,1.9v6.3
		c0,0.1,0,0.3,0,0.4l0,0v0.1h-2.3v-0.1l0,0c0-0.1,0-0.2,0-0.4V55c0-0.5-0.1-1-0.4-1.2c-0.3-0.3-0.6-0.4-1.2-0.4
		c-0.2,0-0.4,0-0.6,0.1c-0.4,0.1-0.8,0.3-1,0.6s-0.4,0.6-0.4,1.1v5.6c0,0.2,0,0.3,0,0.4l0,0v0.1h-1.8V61.4z"/>
	<path class="st0" d="M280,61.4L280,61.4L280,61.4c0-0.2,0-0.3,0-0.5V49.5c0-0.2,0-0.3,0-0.4l0,0V49h2.2v0.1l0,0c0,0.1,0,0.2,0,0.4
		v3.8c0.4-0.6,1-1.1,1.7-1.3c0.4-0.1,0.8-0.1,1.1-0.1c0.9,0,1.5,0.2,1.9,0.8c0.5,0.5,0.8,1.1,0.8,1.9v6.3c0,0.1,0,0.3,0,0.4l0,0v0.1
		h-2.3v-0.1l0,0c0-0.1,0-0.2,0-0.4V55c0-0.5-0.1-1-0.4-1.2c-0.3-0.3-0.6-0.4-1.2-0.4c-0.2,0-0.4,0-0.6,0.1c-0.4,0.1-0.8,0.3-1,0.6
		s-0.4,0.6-0.4,1.1v5.6c0,0.2,0,0.3,0,0.4l0,0v0.1H280V61.4z"/>
	<path class="st0" d="M289.3,56.7c0-1.5,0.4-2.7,1.2-3.6c0.8-0.9,1.8-1.3,3.1-1.3c1.1,0,1.9,0.3,2.6,0.9c0.6,0.5,1.2,1.3,1.5,2.3
		c0.2,0.6,0.2,1.3,0.2,1.8c0,1.4-0.4,2.5-1.2,3.4c-0.9,0.9-1.8,1.3-3.1,1.3c-1.3,0-2.4-0.4-3.1-1.3
		C289.7,59.3,289.3,58.1,289.3,56.7z M291.4,56.7c0,0.2,0,0.4,0,0.8c0.2,2.2,0.9,3.2,2.1,3.2c0.2,0,0.4,0,0.6-0.1
		c0.8-0.3,1.3-1.3,1.5-3c0.1-0.5,0.1-1,0-1.5c-0.1-1.2-0.4-1.9-0.8-2.5c-0.3-0.4-0.8-0.6-1.4-0.6c-1.2,0-1.8,1.1-2.1,3.1
		C291.4,56.2,291.4,56.4,291.4,56.7z"/>
	<path class="st0" d="M300.1,53.9l-0.3-1.3c0.3-0.1,0.5-0.2,0.6-0.3c1-0.4,1.9-0.5,2.8-0.5c1,0,1.6,0.2,2.2,0.8
		c0.4,0.4,0.8,1.1,0.8,1.8v4.9c0,0.1,0,0.2,0,0.5s0.2,0.5,0.4,0.5c0.1,0,0.2,0,0.4-0.1l0.2-0.1v1.1c0,0-0.1,0.1-0.2,0.2
		c-0.4,0.2-0.9,0.3-1.2,0.3c-0.4,0-0.8-0.1-1.1-0.3s-0.5-0.5-0.4-1c-0.3,0.4-0.8,0.8-1.3,1c-0.4,0.2-1,0.3-1.5,0.3
		c-0.8,0-1.4-0.2-1.8-0.8c-0.4-0.5-0.8-1.1-0.8-1.8c0-1.4,0.8-2.4,2.4-2.9c0.2-0.1,0.8-0.2,1.6-0.5c0.4-0.1,0.8-0.3,0.9-0.4
		c0.2-0.1,0.2-0.4,0.3-0.8c0-0.4-0.1-0.9-0.4-1.1s-0.6-0.3-1.2-0.3C301.7,52.9,301,53.3,300.1,53.9z M304,55.9
		c-0.2,0.1-0.3,0.2-0.4,0.3c-1.2,0.4-1.9,0.9-2.3,1.2c-0.3,0.3-0.5,0.8-0.5,1.3c0,0.1,0,0.2,0,0.3c0.2,0.8,0.6,1.2,1.4,1.2
		c0.3,0,0.5-0.1,0.9-0.2c0.6-0.3,1-1,1-1.8L304,55.9L304,55.9z"/>
	<path class="st0" d="M307.7,60.3c0-0.3,0.1-0.5,0.3-0.8s0.5-0.3,0.9-0.3s0.6,0.1,0.9,0.3s0.3,0.4,0.3,0.8c0,0.3-0.1,0.5-0.3,0.8
		c-0.2,0.2-0.5,0.3-0.9,0.3c-0.2,0-0.3,0-0.5-0.1C307.9,61.2,307.7,60.8,307.7,60.3z"/>
	<path class="st0" d="M310.2,52.1h2.4v0.1l0,0c0,0.1,0,0.2,0.1,0.4l2.3,6.5l2.4-6.5c0.1-0.2,0.1-0.3,0.1-0.4v-0.1h1.2v0.1l0,0
		c0,0.1-0.1,0.2-0.2,0.4l-3,8.2c0,0.1-0.1,0.2-0.1,0.4v0.1h-1.6v-0.1c0-0.1,0-0.2-0.1-0.4l-2.9-8.2c-0.1-0.2-0.1-0.3-0.2-0.4
		L310.2,52.1L310.2,52.1z"/>
	<path class="st0" d="M319,61.4L319,61.4L319,61.4c0-0.2,0-0.3,0-0.5v-8.2c0-0.1,0-0.3,0-0.4l0,0v-0.1h2.1v1.2
		c0.4-0.8,1.2-1.3,2.2-1.4c0.2,0,0.4,0,0.6,0c0.9,0,1.5,0.2,2.1,0.8c0.5,0.4,0.8,1.1,0.8,1.8V61c0,0.1,0,0.3,0,0.4l0,0v0.1h-2.2
		v-0.1l0,0c0-0.1,0-0.2,0-0.4v-6c0-0.5-0.1-0.9-0.4-1.2s-0.6-0.4-1.2-0.4c-0.2,0-0.4,0-0.6,0.1c-0.6,0.1-1.1,0.6-1.3,1.4
		c0,0.2-0.1,0.3-0.1,0.4v5.6c0,0.2,0,0.3,0,0.4v0.1l0,0C321,61.4,319,61.4,319,61.4z"/>
</g>
</svg>
