<svg xmlns="http://www.w3.org/2000/svg" width="16.965" height="19.324" viewBox="0 0 16.965 19.324"><path data-name="Path 115" d="M15.234.001h-13.5A1.735 1.735 0 0 0-.001 1.736v13.5a1.735 1.735 0 0 0 1.735 1.735H4.44v2.359l3.285-2.359h7.5a1.735 1.735 0 0 0 1.735-1.735v-13.5A1.735 1.735 0 0 0 15.234.001z" fill="#fff"/><path data-name="Path 116" d="M16.965 14.889v-2.718a1.937 1.937 0 0 0-1.388-.584h-3.95l5.338-7.273V1.983a1.524 1.524 0 0 0-1.015-.388H7.876a1.943 1.943 0 1 0 0 3.886h3.4l-5.5 7.571a1.525 1.525 0 0 0 1.234 2.421h8.568a1.937 1.937 0 0 0 1.387-.584z" fill="#999"/></svg>