<svg id="Layer_1" data-name="Layer 1" xmlns="http://www.w3.org/2000/svg" viewBox="0 0 17.99 22.8"><defs><style>.cls-1{fill:#690e11;}</style></defs><path class="cls-1" d="M14,.21h.79V1H14Z"/><path class="cls-1" d="M14,1.79h.79v.79H14Z"/><path class="cls-1" d="M13.17,1H14v.79h-.79Z"/><path class="cls-1" d="M14.76,1h.79v.79h-.79Z"/><path class="cls-1" d="M6.42.21H9.6V1H6.42Z"/><path class="cls-1" d="M7.21,1.79H8.8v.79H7.21Z"/><path class="cls-1" d="M3.63,22.07a.4.4,0,0,0,.4.4h8a.39.39,0,0,0,.4-.4V13.72H3.63Zm7.15-7.16a.41.41,0,0,1,.4-.4.39.39,0,0,1,.4.4v.79a.4.4,0,0,1-.8,0Zm0,2.38a.41.41,0,0,1,.4-.4.39.39,0,0,1,.4.4v4a.4.4,0,0,1-.8,0Z"/><path class="cls-1" d="M3.63,9h8.74V5.38H3.63Zm7.15-2.38a.4.4,0,0,1,.4-.4.39.39,0,0,1,.4.4V7.76a.4.4,0,0,1-.4.4.41.41,0,0,1-.4-.4Z"/><path class="cls-1" d="M12,12.93a3.24,3.24,0,0,1,0-3.19H4a3.19,3.19,0,0,1,0,3.19Z"/><path class="cls-1" d="M12,3.38H4a.41.41,0,0,0-.4.4v.8h8.74v-.8A.38.38,0,0,0,12,3.38Z"/></svg>