<svg id="Layer_1" data-name="Layer 1" xmlns="http://www.w3.org/2000/svg" viewBox="0 0 17.99 22.8"><defs><style>.cls-1{fill:#690e11;}</style></defs><g id="SvgjsG1038"><path class="cls-1" d="M10.74,6.77c.06.22,0,.45,0,.68l0,.12a.82.82,0,0,1,0,.38c-.06.21-.19.42-.12.64a6.38,6.38,0,0,0,.37.74.76.76,0,0,1,.79.24.43.43,0,0,0,.1.09c.11,0,.2-.09.29-.16s.55-.1.84-.15A1.49,1.49,0,0,0,14,8.66s0-.06,0-.1a.07.07,0,0,0-.06,0,1.81,1.81,0,0,1-.54-.22c-.26-.14-.13-.39-.11-.64a1.26,1.26,0,0,0-.69-1.37.9.9,0,0,1-.19,0,1.49,1.49,0,0,1-.14-.12c-.17-.17-.33-.35-.51-.52a1.48,1.48,0,0,0-.25-.25.6.6,0,0,0-.15-.09l-.05,0c0,.08,0,.22,0,.29s.08.83-.05.77l-.49-.27c-.06,0-.19-.1-.22,0s0,.17.06.22.09.3.14.46Zm1.41.13h0a.22.22,0,0,1,.22,0,.29.29,0,0,1,.21.3.12.12,0,0,1-.08.1s-.09-.16-.1-.17-.09,0-.16,0h-.06c-.07,0-.06-.11,0-.16Zm-2.83,4a3.75,3.75,0,0,1,.25-1c0-.08.08-.16.13-.24l.13-.2a2.94,2.94,0,0,1,.61-.66,2.14,2.14,0,0,1,.43.67s.05.08.09.1a.33.33,0,0,0,.14,0,.59.59,0,0,1,.51.14c.07.06.12.15.2.22a.32.32,0,0,0,.28.08c.11,0,.15-.17.24-.24a.53.53,0,0,1,.46-.08,1.12,1.12,0,0,0,.48,0,1.08,1.08,0,0,0,.51-.39A1.35,1.35,0,0,0,14.05,9c.09-.14.12-.42.3-.19a2.84,2.84,0,0,1,.46,1.48,2.19,2.19,0,0,1-.41.14l-.58.22a.6.6,0,0,0-.32-.36c-.17-.08-.65.18-.68.19a1.33,1.33,0,0,1-.53.13s-2.85.23-3,.25Zm8.44-.49a.53.53,0,0,0-.33.13,4.29,4.29,0,0,0-.45.33c.15-.15.16-.66-.07-.66a.24.24,0,0,0-.14.05c-.19.13-.33.53-.48.53s-.14-.09-.21-.36c0,0-.08-.06-.17-.06a2,2,0,0,0-.69.14c-.2.07-.42.11-.62.18s-.41.18-.63.24a.93.93,0,0,1-.19,0,.19.19,0,0,1-.14-.08l-.16-.31a.12.12,0,0,0-.08,0,.82.82,0,0,0-.36.18,1.66,1.66,0,0,1-.7.19c-.54,0-1.1.12-1.65.15l-.6,0H9.9a3.87,3.87,0,0,1-2.08-.19c-.14-.08-.4-.27-.57-.2s-.17.24-.21.34-.06.17-.22.17H6.75c-.3,0-.61-.08-.91-.13L5.51,11c-.27,0-.53-.12-.78-.16A2.55,2.55,0,0,1,4,10.72c-.06,0-.74-.27-.74-.25s0,.27,0,.4a3.87,3.87,0,0,1-1.3-.27A3,3,0,0,1,1.12,10a.94.94,0,0,0-.45-.17.18.18,0,0,0-.16.06c-.15.22.36.72.28,1l0,0c-.1,0-.42-.23-.61-.23s-.14,0-.16.16a1.54,1.54,0,0,0,.49.76,2.42,2.42,0,0,0,.39.16v0c.07,0,.06.05.08.12a.17.17,0,0,1-.12,0c-.1,0-.24,0-.33,0S.42,12,.4,12s.17.24.27.27a1.55,1.55,0,0,1,.67.52,1.78,1.78,0,0,1,.49.75H1.42c-.06.24.28.32.45.32a1.81,1.81,0,0,1,.69.1c.16.08.23.27.41.35a1.89,1.89,0,0,0,.67.12.23.23,0,0,0,.13.29,3.08,3.08,0,0,1,.74.47c.1.07.35.16.32.32,0,0-.1,0-.15,0h0c-.09.23,0,.29.18.29s.31,0,.43,0c.4,0,.74.29,1.15.29h.24a1.15,1.15,0,0,1,.31,0,2.54,2.54,0,0,0,.6.16H8.65c.42,0,.82-.06,1.24-.06a7.27,7.27,0,0,0,2.45-.39c.45-.15.89-.28,1.33-.45a6.46,6.46,0,0,0,.78-.25,1.59,1.59,0,0,1,.34-.18L15,15h.27c.3,0,.3-.28.09-.28l-.11,0c.12-.11.32-.14.46-.25a3.55,3.55,0,0,1,.55-.28c.18-.08.31-.21.48-.29s.29-.08.31-.27l-.12,0c-.13,0-.26.12-.38.16a.59.59,0,0,1-.2,0c-.06,0-.11,0-.11-.08s.16-.14.21-.17A2.38,2.38,0,0,0,17,13c.17-.26.24-.54.4-.8s.42-.33.37-.54-.07-.14-.15-.14a.66.66,0,0,0-.3.12.53.53,0,0,1-.22.12s-.06,0,0-.13.23-.2.29-.27c.21-.23.27-.41.56-.56a.17.17,0,0,0,.1-.06c.08-.22-.05-.32-.2-.32ZM7.42,14.86a9.63,9.63,0,0,1-1.07-.21,5.14,5.14,0,0,1-.88-.33h0A1.09,1.09,0,0,1,4.94,14l.16.08.31.14.3.08c.59.14,1.17.28,1.76.4a15.73,15.73,0,0,0,2,.32c-.7-.06-1.39,0-2.09-.13Zm3.65-.59a3.47,3.47,0,0,1-.91.08,13.81,13.81,0,0,1-1.57-.11L8,14.17a1.36,1.36,0,0,1-.73-.29c.51,0,1,.12,1.52.17A8,8,0,0,0,10.37,14L12,13.84a3.1,3.1,0,0,1-.92.43Zm-6.7-4c0-.12,0-.24,0-.36a2.25,2.25,0,0,1,.77-1.77,2.21,2.21,0,0,1,1.43-.5,2.57,2.57,0,0,1,.55.06l0,0a.79.79,0,0,0,0,.33.47.47,0,0,1,0,.24.8.8,0,0,1-.17.06.65.65,0,0,0-.39.18,1.24,1.24,0,0,0-.12.75v.13s-.81.06-.83.31c.31,0,.61-.11.92-.11h.1V9.28a1.22,1.22,0,0,1,0-.54c.1-.22.41-.2.6-.24a2.27,2.27,0,0,0,.28.26s.1.08.11.14A.22.22,0,0,1,7.5,9a3.18,3.18,0,0,0-.24.53,1.84,1.84,0,0,0,.58-.63s0,0,0,0,0,0,0-.06c-.35-.21-.74-.58-.55-1a.16.16,0,0,1,.06-.08,4.23,4.23,0,0,1,1.6,1.06,5.51,5.51,0,0,1,.56.67A4.22,4.22,0,0,0,9,10.8a3.73,3.73,0,0,1-.46,0,.61.61,0,0,1-.35-.09,1.92,1.92,0,0,0-.73-.33.63.63,0,0,0-.4.08c-.08.06-.11.17-.17.25s-.33.11-.46.09-1.83-.32-1.91-.34-.1,0-.12-.07l0-.19Z"/></g></svg>