<svg id="Layer_1" data-name="Layer 1" xmlns="http://www.w3.org/2000/svg" viewBox="0 0 17.99 22.8"><defs><style>.cls-1{fill:#6b0f13;}</style></defs><path class="cls-1" d="M.53,11.27a.28.28,0,0,0-.22.11.27.27,0,0,0,0,.23c.06.24.13.49.21.73A5.27,5.27,0,0,0,4,14.3a.16.16,0,0,1,.14.18.17.17,0,0,1-.18.14A5.6,5.6,0,0,1,.78,13.15a8.94,8.94,0,0,0,3,3.74,9.07,9.07,0,0,0,4.54,1.62,2.76,2.76,0,0,0,1.18-.17,9.42,9.42,0,0,0,3.11-1.88.17.17,0,0,1,.12-.05.18.18,0,0,1,.12.05.19.19,0,0,1,0,.12.23.23,0,0,1-.06.12,9.7,9.7,0,0,1-2.75,1.76,9,9,0,0,0,7.61-6.85.27.27,0,0,0-.1-.28.26.26,0,0,0-.3,0A17.23,17.23,0,0,1,9,13.46,17.24,17.24,0,0,1,.66,11.31a.22.22,0,0,0-.13,0Zm15.84,1.29a.14.14,0,0,1,.16.1.15.15,0,0,1-.05.19,18.19,18.19,0,0,1-10,3.2.16.16,0,1,1,0-.32,18,18,0,0,0,9.82-3.15l.08,0Z"/><path class="cls-1" d="M5.6,8a2.6,2.6,0,0,0,.12,1.9H4.47a2.15,2.15,0,0,0,2.7,1A5.15,5.15,0,0,0,8.23,11l-.45-.51a5.34,5.34,0,0,0,.69-.62H7.24Z"/><path class="cls-1" d="M11.62,8.39a5.76,5.76,0,0,0,.8-.73H11L9.09,5.46a3,3,0,0,0,.14,2.2H7.77s1.16,2.05,3.14,1.16A5.94,5.94,0,0,0,12.14,9Z"/><path class="cls-1" d="M13,11.33H12L10.66,9.79a2.05,2.05,0,0,0,.1,1.54h-1a1.76,1.76,0,0,0,2.21.81,4.81,4.81,0,0,0,.86.12l-.36-.42a4.18,4.18,0,0,0,.56-.51Z"/></svg>