<svg id="Layer_1" data-name="Layer 1" xmlns="http://www.w3.org/2000/svg" viewBox="0 0 17.99 22.8"><defs><style>.cls-1{fill:#690e11;}</style></defs><path class="cls-1" d="M10.63,2.32a4.61,4.61,0,0,1-3.06.35A4.55,4.55,0,0,1,5.29.6,4.55,4.55,0,0,1,8.35.25,4.55,4.55,0,0,1,10.63,2.32Z"/><path class="cls-1" d="M15.36,8.31a3.3,3.3,0,0,1-.26,1.18l-.54,1.3-1.2-.91-.28.37,1.29,1,0,0,0,.05a34.28,34.28,0,0,1-2.1,3.31l-.6-.43-.26.38.58.42c-.6.8-1.24,1.58-1.91,2.33L7.84,19.77a.88.88,0,0,1-.71.29H7l-.86,0a1,1,0,0,1-.39-.11.93.93,0,0,1-.43-.54.91.91,0,0,1,.14-.77l.78-1.09a1.62,1.62,0,0,0,1.24-.28l.76.4.22-.41-.63-.33,1.2-1.47.95.48.2-.41-.86-.43,1.94-2.36-.7-.58L8.51,14.66l-.61-.31-.21.41.53.26-1.1,1.34a.72.72,0,0,1-.8.23A.62.62,0,0,1,6,16.24a.76.76,0,0,1,0-.11.64.64,0,0,1,.15-.59l.18-.21.8-.95,0,0,0,0,1.25-1.66L8.8,13l.29-.35-.45-.38.62-.81a1.48,1.48,0,0,0,.3-.69,3.08,3.08,0,0,1,1.2.17l.22-.4a3.3,3.3,0,0,0-1.41-.23s0-.05,0-.07l-.17-1-.14-.8a2.93,2.93,0,0,1,2.51.06l.22-.4A3.36,3.36,0,0,0,9.17,8l-.05-.31a.65.65,0,0,1,.2-.6l.35-.32a4,4,0,0,1,.48-.39.53.53,0,0,0,.12-.14l0,0h0a.48.48,0,0,0,.05-.14l.35-1.87a1.26,1.26,0,0,1,1.78-.92,1.26,1.26,0,0,1,.68.8l.24.83a.44.44,0,0,0,.22.28,3.4,3.4,0,0,1,1.74,2.62C14.38,7.44,13,7,12.89,7l-.13.44s1.66.51,2.6.88Z"/><path class="cls-1" d="M2.33,21A.45.45,0,0,1,2,20.54C2,18,6,15.33,6.21,15.21A.46.46,0,1,1,6.7,16c-1.06.69-3.82,2.86-3.82,4.56a.47.47,0,0,1-.46.46Z"/><path class="cls-1" d="M7,15.54a.67.67,0,0,0-.14.59l0,.11a5,5,0,0,1-.72.57L5.81,17a5.12,5.12,0,0,1-1.59.57,5.46,5.46,0,0,1-.93.08,5.8,5.8,0,0,1-1.62-.23.46.46,0,0,1,.25-.88,4.41,4.41,0,0,0,3.31-.28,4.49,4.49,0,0,0,.68-.42,3.78,3.78,0,0,0,.55-.51.6.6,0,0,1,.08-.08.47.47,0,0,1,.57,0l0,.06Z"/><path class="cls-1" d="M16,13.35l-.11,0a.46.46,0,0,1-.33-.55c.42-1.69.19-2.5-.09-2.88a1,1,0,0,0-.55-.4A.44.44,0,0,1,14.46,9,.44.44,0,0,1,15,8.6a1.71,1.71,0,0,1,1.22.77c.55.79.63,2,.22,3.63a.45.45,0,0,1-.44.35Z"/><path class="cls-1" d="M13.21,17.46A.46.46,0,0,1,13,17.4a.46.46,0,0,1-.17-.63,3.64,3.64,0,0,0,.63-2.71,1.39,1.39,0,0,0-.61-.83.46.46,0,0,1-.2-.61.46.46,0,0,1,.61-.21,2.34,2.34,0,0,1,1.07,1.36,4.49,4.49,0,0,1-.71,3.46.48.48,0,0,1-.4.23Z"/><path class="cls-1" d="M5.91,11.52a.39.39,0,0,1-.29-.11.45.45,0,0,1-.06-.64C8.07,7.76,10,8.94,10.1,9a.45.45,0,0,1,.14.63.45.45,0,0,1-.62.15c-.07,0-1.4-.76-3.36,1.59a.48.48,0,0,1-.35.16Z"/><path class="cls-1" d="M7.28,22.48a.46.46,0,0,1-.08-.91c2-.33,3.06-4.46,3.31-6a.47.47,0,0,1,.52-.38.46.46,0,0,1,.38.53c0,.25-1,6.28-4.06,6.78Z"/><path class="cls-1" d="M3.52,22a.44.44,0,0,1-.45-.39.45.45,0,0,1,.38-.52c2.21-.31,3-1.31,3.18-1.73a.46.46,0,0,1,.81.43c-.36.67-1.33,1.84-3.86,2.21Z"/></svg>