<svg id="Layer_1" data-name="Layer 1" xmlns="http://www.w3.org/2000/svg" viewBox="0 0 17.99 22.8"><defs><style>.cls-1{fill:#690e11;}</style></defs><path class="cls-1" d="M5.81,15a2.83,2.83,0,0,1-1.19-.53V10.24a4,4,0,0,0,2,.53,3.9,3.9,0,0,0,2-.53v.67a3.85,3.85,0,0,0-1.93.54,1.9,1.9,0,0,0-1,1.61,1,1,0,0,0,.09.47c0,.5,0,1,0,1.5Zm5.66-4.82V9.46l-.09.07a4,4,0,0,1-2.32.52v.87h.12a3.7,3.7,0,0,1,2.29-.72Zm1.62.31V7.32a2.48,2.48,0,0,1-.72.58,1.74,1.74,0,0,1-.49,1.21v1.11a4.13,4.13,0,0,1,1.21.3ZM1.79,9.46v4.22a1.57,1.57,0,0,0,.32.24,3.41,3.41,0,0,0,2.1.47V10.05a4,4,0,0,1-2.32-.53l-.1-.06ZM.18,7.32v3.59a1.68,1.68,0,0,0,1.15,1.46h.06V9.12A1.71,1.71,0,0,1,.9,7.91a2.51,2.51,0,0,1-.72-.59Z"/><path class="cls-1" d="M4.29,8.85a.51.51,0,0,0,.37.51,1.07,1.07,0,0,0,.78-.23,2,2,0,0,0,1.19.72,2,2,0,0,0,1.19-.72,1,1,0,0,0,.79.22A.5.5,0,0,0,9,8.85a3.15,3.15,0,0,0,1.61,0c.26-.16.28-.6.12-1,.4,0,.65-.08.74-.22s.05-.36-.18-.54c.56-.22,1-.54,1-.78s-.44-.55-1-.77c.23-.18.31-.36.18-.54s-.34-.21-.74-.22c.16-.44.14-.88-.12-1A3.18,3.18,0,0,0,9,3.64a.5.5,0,0,0-.37-.5,1.08,1.08,0,0,0-.79.22,2,2,0,0,0-1.18-.72,2,2,0,0,0-1.2.73,1.08,1.08,0,0,0-.79-.23.49.49,0,0,0-.36.5,3.22,3.22,0,0,0-1.62,0c-.26.16-.28.6-.12,1-.4,0-.65.08-.74.22s-.05.36.18.54c-.56.22-1,.53-1,.77S1.43,6.8,2,7c-.23.18-.31.35-.18.54s.34.21.74.23c-.16.43-.14.87.12,1a3.08,3.08,0,0,0,1.62,0ZM2.48,7.19l.35.08a.94.94,0,0,0-.09.12,2,2,0,0,1-.53,0,2.07,2.07,0,0,1,.27-.18Zm0-1.88-.27-.19a2.08,2.08,0,0,1,.53,0,.44.44,0,0,0,.08.11,2.14,2.14,0,0,0-.34.09Zm2.2-1.59c0-.11,0-.18.08-.19s.24,0,.44.16a.56.56,0,0,0-.09.17,2.41,2.41,0,0,0-.43-.14Zm3.39,0c.19-.13.35-.19.44-.16s.07.08.07.19l-.42.13a.65.65,0,0,0-.09-.16Zm2.46,1.42a2.16,2.16,0,0,1,.54,0l-.28.19a2.09,2.09,0,0,0-.34-.08s.06-.08.08-.12Zm.26,2.08a2.32,2.32,0,0,1,.28.18,2,2,0,0,1-.54,0,1,1,0,0,0-.08-.11l.34-.09ZM8.58,8.77c0,.12,0,.19-.07.2a.73.73,0,0,1-.44-.16c0-.06.07-.12.09-.17l.42.13Zm-3.38,0A.77.77,0,0,1,4.76,9s-.08-.08-.08-.2a3.68,3.68,0,0,0,.43-.13,1,1,0,0,0,.09.17ZM6.64,2.13a3.24,3.24,0,0,1,2.16.74,3.66,3.66,0,0,1,2.36.44,1.4,1.4,0,0,1,.77,1.52,1.65,1.65,0,0,1,1.15,1.42,1.68,1.68,0,0,1-1.15,1.43,1.41,1.41,0,0,1-.77,1.51,3.72,3.72,0,0,1-2.36.44,3.18,3.18,0,0,1-2.16.74,3.18,3.18,0,0,1-2.16-.74,3.81,3.81,0,0,1-2.37-.45,1.41,1.41,0,0,1-.78-1.51A1.65,1.65,0,0,1,.18,6.24,1.64,1.64,0,0,1,1.33,4.82,1.42,1.42,0,0,1,2.1,3.3a3.72,3.72,0,0,1,2.36-.44A3.36,3.36,0,0,1,6.64,2.13Z"/><path class="cls-1" d="M5.43,4.16A1.91,1.91,0,0,1,6.63,3a1.86,1.86,0,0,1,1.2,1.12.19.19,0,0,0,.29.14A3.88,3.88,0,0,1,9.46,4a2.5,2.5,0,0,1,.91,0c.15.09,0,.85-.48,1.2a.2.2,0,0,0,.11.36,3.62,3.62,0,0,1,1.32.36,2.84,2.84,0,0,1,.45.26c.07,0,.1.09.1.06s0,0-.1.06a2.45,2.45,0,0,1-.45.26A3.77,3.77,0,0,1,10,6.93a.2.2,0,0,0-.11.36c.46.35.63,1.11.48,1.2a2.48,2.48,0,0,1-.91,0A3.88,3.88,0,0,1,8.12,8.2a.2.2,0,0,0-.29.14,1.91,1.91,0,0,1-1.2,1.12,1.86,1.86,0,0,1-1.2-1.12.21.21,0,0,0-.29-.16,4.1,4.1,0,0,1-1.34.33,2.75,2.75,0,0,1-.91,0c-.15-.09,0-.84.48-1.2a.2.2,0,0,0-.11-.36,3.62,3.62,0,0,1-1.32-.36,2.74,2.74,0,0,1-.44-.25c-.07-.06-.11-.1-.11-.07s0,0,.11-.06A2.45,2.45,0,0,1,2,5.92a4,4,0,0,1,1.32-.36.19.19,0,0,0,.1-.35C2.91,4.87,2.74,4.1,2.89,4A2.48,2.48,0,0,1,3.8,4a3.88,3.88,0,0,1,1.34.32.19.19,0,0,0,.29-.14ZM6.64,3.9a1.47,1.47,0,0,0-1,.74A2.69,2.69,0,0,0,4.1,4.56c-.26.16-.22.63,0,1C3.56,5.68,3,6,3,6.24s.56.57,1.11.7c-.23.37-.27.83,0,1a2.54,2.54,0,0,0,1.54-.09,1.47,1.47,0,0,0,1,.75,1.47,1.47,0,0,0,1-.75,2.54,2.54,0,0,0,1.54.09c.25-.16.21-.62,0-1,.55-.13,1.11-.44,1.11-.7s-.56-.57-1.11-.69c.22-.36.26-.84,0-1a2.71,2.71,0,0,0-1.54.09A1.51,1.51,0,0,0,6.64,3.9Z"/><path class="cls-1" d="M9.56,6.11a1.29,1.29,0,0,1,.24.13,1.29,1.29,0,0,1-.24.13,2.46,2.46,0,0,1-.8.22A.2.2,0,0,0,8.65,7a.83.83,0,0,1,.3.63,2.85,2.85,0,0,1-1.34-.19.21.21,0,0,0-.29.16,1.16,1.16,0,0,1-.69.64,1.16,1.16,0,0,1-.69-.64.19.19,0,0,0-.28-.15,2.61,2.61,0,0,1-1.34.19A.8.8,0,0,1,4.63,7a.2.2,0,0,0-.11-.36,2.58,2.58,0,0,1-.8-.22,1.29,1.29,0,0,1-.24-.13,1.29,1.29,0,0,1,.24-.13,2.16,2.16,0,0,1,.8-.21.2.2,0,0,0,.11-.36.86.86,0,0,1-.31-.65,2.85,2.85,0,0,1,1.34.19A.21.21,0,0,0,6,5a1.18,1.18,0,0,1,.69-.65A1.18,1.18,0,0,1,7.33,5a.19.19,0,0,0,.28.14A2.88,2.88,0,0,1,9,4.9a.86.86,0,0,1-.3.63.2.2,0,0,0,.11.36,2.48,2.48,0,0,1,.79.22ZM6.64,7.33c.88,0,1.62-.46,1.62-1.08S7.52,5.17,6.64,5.17,5,5.62,5,6.24,5.76,7.33,6.64,7.33Z"/><path class="cls-1" d="M6.64,6.92c.68,0,1.21-.32,1.21-.68s-.53-.68-1.21-.68-1.22.34-1.22.68S6,6.92,6.64,6.92Z"/><path class="cls-1" d="M16.33,16c.1-.17,0-.34-.2-.51.56-.22,1-.54,1-.78s-.44-.55-1-.77c.23-.18.31-.36.18-.54s-.34-.21-.74-.22c.16-.44.14-.88-.12-1a3.18,3.18,0,0,0-1.61,0,.5.5,0,0,0-.37-.5,1.08,1.08,0,0,0-.79.22,2,2,0,0,0-1.19-.73,2,2,0,0,0-1.19.73,1,1,0,0,0-.79-.22c-.23.05-.34.23-.37.5a3.3,3.3,0,0,0-1.61,0c-.26.16-.28.6-.12,1a1,1,0,0,0-.72.19l-.52-.14A1.45,1.45,0,0,1,7,11.79a3.72,3.72,0,0,1,2.36-.44,3.18,3.18,0,0,1,2.16-.74,3.17,3.17,0,0,1,2.16.74,3.69,3.69,0,0,1,2.37.44,1.42,1.42,0,0,1,.77,1.52,1.67,1.67,0,0,1,1.15,1.42,1.66,1.66,0,0,1-1.14,1.42ZM7.41,13.58h.18l0,.05Zm8.37,2.28-.45-.13.3-.07a1.55,1.55,0,0,1,.27.18l-.12,0ZM9.53,12.2c0-.11,0-.18.07-.19s.25,0,.44.16l-.09.17a1.73,1.73,0,0,0-.42-.14Zm3.39,0a.67.67,0,0,1,.44-.16s.07.08.07.19a4.38,4.38,0,0,0-.43.13c0-.05-.05-.1-.08-.16Zm2.45,1.42a2.16,2.16,0,0,1,.54,0,2,2,0,0,1-.27.19l-.35-.08.08-.12Z"/><path class="cls-1" d="M14.67,15.56a.19.19,0,0,1,.18-.16A3.86,3.86,0,0,0,16.17,15a2.26,2.26,0,0,0,.45-.25c.08-.06.11-.1.11-.07s0,0-.11-.06a2.45,2.45,0,0,0-.45-.26A4,4,0,0,0,14.85,14a.2.2,0,0,1-.11-.36c.46-.34.63-1.1.48-1.2a2.48,2.48,0,0,0-.91,0,3.86,3.86,0,0,0-1.34.33.21.21,0,0,1-.29-.15,1.91,1.91,0,0,0-1.2-1.12,1.91,1.91,0,0,0-1.2,1.12.2.2,0,0,1-.29.15,4,4,0,0,0-1.33-.33,2.57,2.57,0,0,0-.92,0c-.15.1,0,.85.48,1.2a.17.17,0,0,1,.08.14l.64.18c-.2-.36-.23-.8,0-1a2.71,2.71,0,0,1,1.54.09,1.48,1.48,0,0,1,1-.74,1.53,1.53,0,0,1,1,.74A2.71,2.71,0,0,1,14,13c.25.17.21.63,0,1,.55.13,1.1.44,1.1.69s-.5.54-1,.69Z"/><path class="cls-1" d="M13.42,15.22a.22.22,0,0,1,.18-.15,2.43,2.43,0,0,0,.81-.21l.24-.13-.24-.13a2.26,2.26,0,0,0-.81-.21.2.2,0,0,1-.11-.36.87.87,0,0,0,.31-.64,2.79,2.79,0,0,0-1.35.2.21.21,0,0,1-.29-.15,1.16,1.16,0,0,0-.69-.64,1.18,1.18,0,0,0-.68.64.2.2,0,0,1-.29.15,2.79,2.79,0,0,0-1.35-.2.87.87,0,0,0,.31.64.19.19,0,0,1,.08.15l.45.12a1.74,1.74,0,0,1,1.48-.65c.88,0,1.61.46,1.61,1.08a.82.82,0,0,1-.09.38Z"/><path class="cls-1" d="M10.42,14.39A1.55,1.55,0,0,1,11.47,14c.69,0,1.21.33,1.21.68a.5.5,0,0,1-.1.28Z"/><path class="cls-1" d="M16.33,16.43v4.09a.69.69,0,0,1-.35,0L6.69,18.13a.63.63,0,0,1-.46-.59V13.67Zm-2.89,3a.19.19,0,0,0,.2-.2,3.49,3.49,0,0,0-2.77-3.36,2.07,2.07,0,0,0-2.74,2.08.2.2,0,0,0,.2.2c.12,0,5,1.28,5.11,1.28Z"/></svg>