<svg id="Layer_1" data-name="Layer 1" xmlns="http://www.w3.org/2000/svg" viewBox="0 0 17.99 22.8"><defs><style>.cls-1{fill:#690e11;}</style></defs><path class="cls-1" d="M3.89,10.08c.45.25,2.29,1.79,2.29,1.79L7.77,13l-.15-.43a4.15,4.15,0,0,1-.49-3.39L6.79,8.14C6.2,5.51,2.91,6.08,2.91,6.08c-.34,2.86.54,3.76,1,4Z"/><path class="cls-1" d="M3.26,11a9.51,9.51,0,0,0-2.8.32c-.54,0,0,.84.55,1.45a3.17,3.17,0,0,0,3.33,1.65c2.21-.25,2.43-.4,3.82-.1l-.4-1S4.58,11.17,3.26,11Z"/><path class="cls-1" d="M17.53,11.37c-.55,0-2.32-.64-3.56-.16a28.5,28.5,0,0,0-4.13,2.3l-.3.76c1.39-.3,1.81,0,4,.2A3.36,3.36,0,0,0,17,12.83c.49-.61,1.08-1.46.54-1.46Z"/><path class="cls-1" d="M8.55,11.48C8.39,11,8.42,9.61,8,9.4s-.67.08-.6,1a3.88,3.88,0,0,0,.67,2l.33,1.39s.29.82.36,0c0,0-.32-1.32-.32-1.52h0a.9.9,0,0,0,.15-.85Z"/><path class="cls-1" d="M9.37,13.86l.33-1.4a3.84,3.84,0,0,0,.67-2c.07-1-.15-1.26-.6-1S9.34,11,9.18,11.48a.88.88,0,0,0,.16.85c0,.2-.32,1.53-.32,1.53.06.81.35,0,.35,0Z"/><path class="cls-1" d="M8.87,11.12a5.32,5.32,0,0,1,.88-2.83A14,14,0,0,1,12.8,5.44h0a.17.17,0,0,0,0-.28L12.66,5a.2.2,0,0,0-.24,0c-.62.48-3.31,2.77-3.63,4.94a1.68,1.68,0,0,0,.08,1.19Z"/><path class="cls-1" d="M8.06,4.84a3.19,3.19,0,0,1,1.15,3l.17-.23a4.29,4.29,0,0,0-.83-3.32h0a.17.17,0,0,0-.26,0L8,4.63a.15.15,0,0,0,0,.21Z"/><path class="cls-1" d="M5.86,5.72A15.77,15.77,0,0,1,8.5,9.41l.08-.31A14,14,0,0,0,7.1,6.74,7.73,7.73,0,0,1,5.57,4.11.18.18,0,0,0,5.35,4L5,4.09H5a.16.16,0,0,0-.11.1.2.2,0,0,0,0,.15,8.61,8.61,0,0,0,.94,1.38Z"/><path class="cls-1" d="M11.88,6.74l0,0-.1.1a7.61,7.61,0,0,0-1.54,2h0a.8.8,0,0,1,.43.63A4.2,4.2,0,0,1,10,12.58l-.17.57s.39-.23,2.27-1.75c0,0,1.43-1.11,1.88-1.35s1.33-1.14,1-4a4.18,4.18,0,0,0-3.1.69Z"/><path class="cls-1" d="M8.87,14.57a2,2,0,0,1-.63-.22l-.05-.08v.05l0,0a9.83,9.83,0,0,0-3.42.63c-.85.56-1.49.43-1.89,1s.86,1.64,2.06,1.86,3.52-2.36,3.8-2.8a.18.18,0,0,1,.18-.13A.17.17,0,0,1,9,15c.29.44,2.59,3,3.8,2.8S15.3,16.54,14.9,16s-1-.46-1.89-1a9.83,9.83,0,0,0-3.42-.63l-.05,0v-.05l0,.07a1.72,1.72,0,0,1-.62.23Z"/><path class="cls-1" d="M8.76,15.53l-.44.52.1,3.66s.41.46.7,0l.22-3.79L9,15.52a.18.18,0,0,0-.12,0,.14.14,0,0,0-.12.06Z"/></svg>